<?xml version="1.0" encoding="utf-8"?>
<!-- Generator: Adobe Illustrator 16.0.0, SVG Export Plug-In . SVG Version: 6.00 Build 0)  -->
<!DOCTYPE svg PUBLIC "-//W3C//DTD SVG 1.1//EN" "http://www.w3.org/Graphics/SVG/1.1/DTD/svg11.dtd" [
	<!ENTITY ns_flows "http://ns.adobe.com/Flows/1.0/">
	<!ENTITY ns_extend "http://ns.adobe.com/Extensibility/1.0/">
	<!ENTITY ns_ai "http://ns.adobe.com/AdobeIllustrator/10.0/">
	<!ENTITY ns_graphs "http://ns.adobe.com/Graphs/1.0/">
]>
<svg version="1.1" id="Layer_1" xmlns:x="&ns_extend;" xmlns:i="&ns_ai;" xmlns:graph="&ns_graphs;"
	 xmlns="http://www.w3.org/2000/svg" xmlns:xlink="http://www.w3.org/1999/xlink" xmlns:a="http://ns.adobe.com/AdobeSVGViewerExtensions/3.0/"
	 x="0px" y="0px" width="919.332px" height="317.667px" viewBox="0 0 919.332 317.667" enable-background="new 0 0 919.332 317.667"
	 xml:space="preserve">
<defs>
    <filter id="f2" x="0" y="0" width="200%" height="200%">
      <feOffset result="offOut" in="SourceGraphic" dx="20" dy="20" />
      <feColorMatrix result="matrixOut" in="offOut" type="matrix"
      values="0.2 0 0 0 0 0 0.2 0 0 0 0 0 0.2 0 0 0 0 0 1 0" />
      <feGaussianBlur result="blurOut" in="matrixOut" stdDeviation="10" />
      <feBlend in="SourceGraphic" in2="blurOut" mode="normal" />
    </filter>
</defs>	 
<g>
	<path fill="#FFFFFF" d="M212.833,203.666h-98.5l30.75-177h52.75l-22.25,128.75h45.75L212.833,203.666z" filter="url(#f2)"/>
	<path fill="#FFFFFF" d="M352.084,120.166c0,11.668-1.461,22.836-4.375,33.5c-2.918,10.668-7.336,20.086-13.25,28.25
		c-5.918,8.168-13.211,14.668-21.875,19.5c-8.668,4.832-18.75,7.25-30.25,7.25c-8.5,0-15.961-1.375-22.375-4.125
		c-6.418-2.75-11.836-6.582-16.25-11.5c-4.418-4.914-7.75-10.75-10-17.5s-3.375-14.125-3.375-22.125
		c0-11.664,1.539-22.832,4.625-33.5c3.082-10.664,7.625-20.082,13.625-28.25c6-8.164,13.375-14.664,22.125-19.5
		c8.75-4.832,18.707-7.25,29.875-7.25c8.332,0,15.707,1.375,22.125,4.125c6.414,2.75,11.789,6.543,16.125,11.375
		c4.332,4.836,7.625,10.668,9.875,17.5C350.959,104.751,352.084,112.166,352.084,120.166z M305.334,124.666
		c0-4.832-0.75-8.75-2.25-11.75s-4-4.5-7.5-4.5c-3,0-5.625,1.418-7.875,4.25c-2.25,2.836-4.086,6.336-5.5,10.5
		c-1.418,4.168-2.5,8.586-3.25,13.25c-0.75,4.668-1.125,8.836-1.125,12.5c0,4.836,0.664,8.711,2,11.625
		c1.332,2.918,3.664,4.375,7,4.375c3,0,5.664-1.375,8-4.125c2.332-2.75,4.289-6.207,5.875-10.375c1.582-4.164,2.75-8.539,3.5-13.125
		C304.959,132.708,305.334,128.501,305.334,124.666z" filter="url(#f2)"/>
	<path fill="#FFFFFF" d="M396.082,203.666c-6,0-11.25-1.164-15.75-3.5c-4.5-2.332-8.25-5.625-11.25-9.875s-5.211-9.25-6.625-15
		c-1.418-5.75-2.125-12.039-2.125-18.875c0-10,1.207-20.332,3.625-31c2.414-10.664,6-20.414,10.75-29.25
		c4.75-8.832,10.707-16.082,17.875-21.75c7.164-5.664,15.5-8.5,25-8.5c7.5,0,13.289,1.75,17.375,5.25c4.082,3.5,6.789,7.5,8.125,12
		h1l2.5-13.25h46.75l-20.75,119.25c-2,11.836-4.875,22.375-8.625,31.625s-8.625,17.039-14.625,23.375
		c-6,6.332-13.211,11.164-21.625,14.5c-8.418,3.332-18.293,5-29.625,5c-9,0-17.836-1.5-26.5-4.5c-8.668-3-15.918-6.668-21.75-11
		l24.5-38c3.332,2.664,7.039,4.832,11.125,6.5c4.082,1.664,8.539,2.5,13.375,2.5c6.664,0,12.164-2.043,16.5-6.125
		c4.332-4.086,7.164-9.375,8.5-15.875l1.5-7.25h-0.5c-2.5,3.336-6.125,6.461-10.875,9.375
		C409.207,202.208,403.246,203.666,396.082,203.666z M409.082,149.166c0,4.668,0.75,8.461,2.25,11.375
		c1.5,2.918,4.082,4.375,7.75,4.375c3,0,5.625-1.414,7.875-4.25c2.25-2.832,4.082-6.332,5.5-10.5c1.414-4.164,2.5-8.582,3.25-13.25
		c0.75-4.664,1.125-8.832,1.125-12.5c0-4.832-0.75-8.707-2.25-11.625c-1.5-2.914-3.918-4.375-7.25-4.375c-3,0-5.668,1.418-8,4.25
		c-2.336,2.836-4.25,6.336-5.75,10.5c-1.5,4.168-2.625,8.625-3.375,13.375S409.082,145.501,409.082,149.166z" filter="url(#f2)"/>
	<path fill="#FFFFFF" d="M598.829,203.666h-53l30.75-177h53L598.829,203.666z" filter="url(#f2)"/>
	<path fill="#FFFFFF" d="M644.077,93.041c0.5-3.082,1-6.082,1.5-9c0.5-2.914,0.914-5.625,1.25-8.125c0.332-2.5,0.582-4.5,0.75-6h46
		c-0.168,2.336-0.418,5-0.75,8c-0.336,3-0.668,5.75-1,8.25h0.75c3.332-5.832,7.832-10.832,13.5-15c5.664-4.164,12.5-6.25,20.5-6.25
		c5.664,0,10.457,1.043,14.375,3.125c3.914,2.086,7.125,4.75,9.625,8s4.332,6.875,5.5,10.875c1.164,4,1.75,7.836,1.75,11.5
		c0,3.836-0.25,7.918-0.75,12.25c-0.5,4.336-1.168,8.75-2,13.25l-14,79.75h-49.5l14.25-79.5c0.164-1,0.289-1.957,0.375-2.875
		c0.082-0.914,0.125-1.789,0.125-2.625c0-2.332-0.461-4.414-1.375-6.25c-0.918-1.832-2.793-2.75-5.625-2.75
		c-3.168,0-5.586,1.293-7.25,3.875c-1.668,2.586-2.918,6.043-3.75,10.375l-14,79.75h-49.75l18-102
		C643.077,99.001,643.577,96.126,644.077,93.041z" filter="url(#f2)"/>
</g>
</svg>
