<?xml version="1.0" encoding="utf-8"?>
<!-- Generator: Adobe Illustrator 16.0.0, SVG Export Plug-In . SVG Version: 6.00 Build 0)  -->
<!DOCTYPE svg PUBLIC "-//W3C//DTD SVG 1.1//EN" "http://www.w3.org/Graphics/SVG/1.1/DTD/svg11.dtd" [
	<!ENTITY ns_flows "http://ns.adobe.com/Flows/1.0/">
	<!ENTITY ns_extend "http://ns.adobe.com/Extensibility/1.0/">
	<!ENTITY ns_ai "http://ns.adobe.com/AdobeIllustrator/10.0/">
	<!ENTITY ns_graphs "http://ns.adobe.com/Graphs/1.0/">
]>
<svg version="1.1" id="Layer_1" xmlns:x="&ns_extend;" xmlns:i="&ns_ai;" xmlns:graph="&ns_graphs;"
	 xmlns="http://www.w3.org/2000/svg" xmlns:xlink="http://www.w3.org/1999/xlink" xmlns:a="http://ns.adobe.com/AdobeSVGViewerExtensions/3.0/"
	 x="0px" y="0px" width="919.332px" height="317.667px" viewBox="0 0 919.332 317.667" enable-background="new 0 0 919.332 317.667"
	 xml:space="preserve">
<defs>
    <filter id="f2" x="0" y="0" width="200%" height="200%">
      <feOffset result="offOut" in="SourceGraphic" dx="20" dy="20" />
      <feColorMatrix result="matrixOut" in="offOut" type="matrix"
      values="0.2 0 0 0 0 0 0.2 0 0 0 0 0 0.2 0 0 0 0 0 1 0" />
      <feGaussianBlur result="blurOut" in="matrixOut" stdDeviation="10" />
      <feBlend in="SourceGraphic" in2="blurOut" mode="normal" />
    </filter>
</defs>	 
<g>
	<path fill="#FFFFFF" d="M118.833,203.666h-98.5l30.75-177h52.75l-22.25,128.75h45.75L118.833,203.666z" filter="url(#f2)"/>
	<path fill="#FFFFFF" d="M258.084,120.166c0,11.668-1.461,22.836-4.375,33.5c-2.918,10.668-7.336,20.086-13.25,28.25
		c-5.918,8.168-13.211,14.668-21.875,19.5c-8.668,4.832-18.75,7.25-30.25,7.25c-8.5,0-15.961-1.375-22.375-4.125
		c-6.418-2.75-11.836-6.582-16.25-11.5c-4.418-4.914-7.75-10.75-10-17.5s-3.375-14.125-3.375-22.125
		c0-11.664,1.539-22.832,4.625-33.5c3.082-10.664,7.625-20.082,13.625-28.25c6-8.164,13.375-14.664,22.125-19.5
		c8.75-4.832,18.707-7.25,29.875-7.25c8.332,0,15.707,1.375,22.125,4.125c6.414,2.75,11.789,6.543,16.125,11.375
		c4.332,4.836,7.625,10.668,9.875,17.5C256.959,104.751,258.084,112.166,258.084,120.166z M211.334,124.666
		c0-4.832-0.75-8.75-2.25-11.75s-4-4.5-7.5-4.5c-3,0-5.625,1.418-7.875,4.25c-2.25,2.836-4.086,6.336-5.5,10.5
		c-1.418,4.168-2.5,8.586-3.25,13.25c-0.75,4.668-1.125,8.836-1.125,12.5c0,4.836,0.664,8.711,2,11.625
		c1.332,2.918,3.664,4.375,7,4.375c3,0,5.664-1.375,8-4.125c2.332-2.75,4.289-6.207,5.875-10.375c1.582-4.164,2.75-8.539,3.5-13.125
		C210.959,132.708,211.334,128.501,211.334,124.666z" filter="url(#f2)"/>
	<path fill="#FFFFFF" d="M302.082,203.666c-6,0-11.25-1.164-15.75-3.5c-4.5-2.332-8.25-5.625-11.25-9.875s-5.211-9.25-6.625-15
		c-1.418-5.75-2.125-12.039-2.125-18.875c0-10,1.207-20.332,3.625-31c2.414-10.664,6-20.414,10.75-29.25
		c4.75-8.832,10.707-16.082,17.875-21.75c7.164-5.664,15.5-8.5,25-8.5c7.5,0,13.289,1.75,17.375,5.25c4.082,3.5,6.789,7.5,8.125,12
		h1l2.5-13.25h46.75l-20.75,119.25c-2,11.836-4.875,22.375-8.625,31.625s-8.625,17.039-14.625,23.375
		c-6,6.332-13.211,11.164-21.625,14.5c-8.418,3.332-18.293,5-29.625,5c-9,0-17.836-1.5-26.5-4.5c-8.668-3-15.918-6.668-21.75-11
		l24.5-38c3.332,2.664,7.039,4.832,11.125,6.5c4.082,1.664,8.539,2.5,13.375,2.5c6.664,0,12.164-2.043,16.5-6.125
		c4.332-4.086,7.164-9.375,8.5-15.875l1.5-7.25h-0.5c-2.5,3.336-6.125,6.461-10.875,9.375
		C315.207,202.208,309.246,203.666,302.082,203.666z M315.082,149.166c0,4.668,0.75,8.461,2.25,11.375
		c1.5,2.918,4.082,4.375,7.75,4.375c3,0,5.625-1.414,7.875-4.25c2.25-2.832,4.082-6.332,5.5-10.5c1.414-4.164,2.5-8.582,3.25-13.25
		c0.75-4.664,1.125-8.832,1.125-12.5c0-4.832-0.75-8.707-2.25-11.625c-1.5-2.914-3.918-4.375-7.25-4.375c-3,0-5.668,1.418-8,4.25
		c-2.336,2.836-4.25,6.336-5.75,10.5c-1.5,4.168-2.625,8.625-3.375,13.375S315.082,145.501,315.082,149.166z" filter="url(#f2)"/>
	<path fill="#FFFFFF" d="M608.829,91.416c0,14.836-2,29.25-6,43.25s-9.793,26.5-17.375,37.5c-7.586,11-16.875,19.836-27.875,26.5
		s-23.418,10-37.25,10c-10,0-18.875-1.668-26.625-5s-14.293-8.082-19.625-14.25c-5.336-6.164-9.375-13.539-12.125-22.125
		c-2.75-8.582-4.125-18.125-4.125-28.625c0-14.832,2-29.25,6-43.25s9.75-26.457,17.25-37.375
		c7.5-10.914,16.707-19.707,27.625-26.375c10.914-6.664,23.289-10,37.125-10c10.5,0,19.664,1.668,27.5,5
		c7.832,3.336,14.375,8.043,19.625,14.125c5.25,6.086,9.207,13.418,11.875,22C607.493,71.376,608.829,80.916,608.829,91.416z
		 M555.329,98.916c0-7.5-1.25-13.75-3.75-18.75s-6.336-7.5-11.5-7.5c-4.668,0-8.793,1.961-12.375,5.875
		c-3.586,3.918-6.586,8.793-9,14.625c-2.418,5.836-4.25,12.168-5.5,19c-1.25,6.836-1.875,13.25-1.875,19.25
		c0,7.336,1.125,13.461,3.375,18.375c2.25,4.918,6.289,7.375,12.125,7.375c4.5,0,8.539-1.914,12.125-5.75
		c3.582-3.832,6.582-8.664,9-14.5c2.414-5.832,4.25-12.164,5.5-19C554.704,111.083,555.329,104.751,555.329,98.916z" filter="url(#f2)"/>
	<path fill="#FFFFFF" d="M728.826,180.666c-0.5,3-1,5.961-1.5,8.875c-0.5,2.918-0.918,5.625-1.25,8.125c-0.336,2.5-0.586,4.5-0.75,6
		h-46c0.164-2.332,0.414-5,0.75-8c0.332-3,0.664-5.75,1-8.25h-0.75c-3.336,5.836-7.836,10.836-13.5,15
		c-5.668,4.164-12.5,6.25-20.5,6.25c-5.668,0-10.461-1.043-14.375-3.125c-3.918-2.082-7.125-4.75-9.625-8s-4.336-6.875-5.5-10.875
		c-1.168-4-1.75-7.832-1.75-11.5c0-3.832,0.25-7.914,0.75-12.25c0.5-4.332,1.164-8.75,2-13.25l14-79.75h49.5l-14.25,79.5
		c-0.168,1-0.293,1.961-0.375,2.875c-0.086,0.918-0.125,1.793-0.125,2.625c0,2.336,0.457,4.418,1.375,6.25
		c0.914,1.836,2.789,2.75,5.625,2.75c3.164,0,5.582-1.289,7.25-3.875c1.664-2.582,2.914-6.039,3.75-10.375l14-79.75h49.75l-18,102
		C729.826,174.751,729.326,177.666,728.826,180.666z" filter="url(#f2)"/>
	<path fill="#FFFFFF" d="M798.573,206.166c-13,0-22.875-2.957-29.625-8.875c-6.75-5.914-10.125-14.375-10.125-25.375
		c0-1.832,0.082-3.875,0.25-6.125c0.164-2.25,0.414-4.289,0.75-6.125l9-50.25h-17l7.25-39.5h17l5.25-30.5h48l-5.25,30.5h21.75
		l-7.25,39.5h-21.5l-6.5,36.75c-0.336,1.168-0.586,2.5-0.75,4c-0.168,1.5-0.25,2.668-0.25,3.5c0,7.168,3.5,10.75,10.5,10.75
		c1.332,0,2.832-0.082,4.5-0.25c1.664-0.164,3.082-0.414,4.25-0.75l-7.25,39.25c-2.336,1-5.793,1.832-10.375,2.5
		C806.612,205.83,802.405,206.166,798.573,206.166z" filter="url(#f2)"/>
</g>
</svg>
