<?xml version="1.0" encoding="utf-8"?>
<!-- Generator: Adobe Illustrator 16.0.0, SVG Export Plug-In . SVG Version: 6.00 Build 0)  -->
<!DOCTYPE svg PUBLIC "-//W3C//DTD SVG 1.1//EN" "http://www.w3.org/Graphics/SVG/1.1/DTD/svg11.dtd" [
	<!ENTITY ns_flows "http://ns.adobe.com/Flows/1.0/">
	<!ENTITY ns_extend "http://ns.adobe.com/Extensibility/1.0/">
	<!ENTITY ns_ai "http://ns.adobe.com/AdobeIllustrator/10.0/">
	<!ENTITY ns_graphs "http://ns.adobe.com/Graphs/1.0/">
]>
<svg version="1.1" id="Layer_1" xmlns:x="&ns_extend;" xmlns:i="&ns_ai;" xmlns:graph="&ns_graphs;"
	 xmlns="http://www.w3.org/2000/svg" xmlns:xlink="http://www.w3.org/1999/xlink" xmlns:a="http://ns.adobe.com/AdobeSVGViewerExtensions/3.0/"
	 x="0px" y="0px" width="850px" height="356px" viewBox="0 0 850 356" enable-background="new 0 0 850 326" xml:space="preserve"> 
<g>
	<path fill="#FFFFFF" d="M187.68,144.629c0,14.89-2.95,27.455-8.845,37.7c-5.899,10.25-14.26,17.69-25.085,22.33l19.43,87.58h-64.09
		l-11.02-74.82h-7.54l-13.05,74.82h-58l35.67-205.32h71.05c19.91,0,35.135,4.834,45.675,14.5
		C182.41,111.089,187.68,125.489,187.68,144.629z M126.49,152.459c0-5.991-1.595-9.956-4.785-11.89c-3.19-1.93-6.235-2.9-9.135-2.9
		h-8.12l-6.67,37.99h6.38c5.8,0,10.97-1.74,15.515-5.22C124.215,166.959,126.49,160.969,126.49,152.459z" />
	<path fill="#FFFFFF" d="M368.637,162.029c0,17.209-2.32,33.93-6.96,50.17c-4.64,16.24-11.36,30.74-20.155,43.5
		c-8.799,12.76-19.575,23.01-32.335,30.74c-12.76,7.73-27.165,11.6-43.21,11.6c-8.12,0-15.515-0.97-22.185-2.9
		c-6.67-1.935-12.714-4.64-18.125-8.12l-16.82,23.201l-23.2-14.21l21.17-27.84c-8.895-13.725-13.34-30.835-13.34-51.33
		c0-17.205,2.32-33.93,6.96-50.17c4.64-16.24,11.31-30.69,20.01-43.355c8.7-12.661,19.38-22.86,32.045-30.595
		c12.66-7.73,27.015-11.6,43.065-11.6c8.505,0,16.19,0.97,23.055,2.9c6.86,1.935,13.095,4.64,18.705,8.12l14.5-21.17l23.2,13.05
		l-19.43,26.68c4.445,6.77,7.73,14.455,9.86,23.055C367.572,142.359,368.637,151.784,368.637,162.029z M289.467,137.669
		c-5.8,0-10.925,2.333-15.37,6.992c-4.45,4.658-8.22,10.485-11.31,17.472c-3.095,6.987-5.465,14.654-7.105,23.001
		c-1.645,8.346-2.465,16.113-2.465,23.295l46.11-67.266C296.427,138.834,293.137,137.669,289.467,137.669z M272.937,240.619
		c5.605,0,10.63-2.32,15.08-6.96c4.445-4.64,8.215-10.44,11.31-17.4c3.09-6.96,5.46-14.5,7.105-22.62
		c1.64-8.12,2.465-15.755,2.465-22.91l-46.4,66.7C265.202,239.559,268.682,240.619,272.937,240.619z" />
	<path fill="#FFFFFF" d="M463.754,262.079h-36.83l-10.73,30.16h-63.22l86.421-205.32h75.109l10.73,205.32h-61.48V262.079z
		 M441.424,215.969h23.199v-67.57h-1.16L441.424,215.969z M511.895,38.779c0,5.03-0.871,9.814-2.611,14.355
		c-1.74,4.545-4.158,8.51-7.25,11.89c-3.094,3.385-6.719,6.09-10.875,8.12c-4.158,2.03-8.654,3.045-13.484,3.045
		c-8.699,0-15.275-2.511-19.721-7.54c-4.449-5.025-6.67-11.405-6.67-19.14c0-5.22,0.82-10.15,2.465-14.79
		c1.641-4.64,3.961-8.745,6.961-12.325c2.994-3.575,6.475-6.38,10.439-8.41c3.961-2.03,8.266-3.045,12.906-3.045
		c9.279,0,16.238,2.709,20.879,8.12C509.574,24.474,511.895,31.049,511.895,38.779z M497.395,39.939
		c0-4.06-1.115-7.685-3.336-10.875c-2.225-3.19-5.754-4.785-10.584-4.785c-5.801,0-10.295,2.465-13.486,7.395
		c-3.189,4.93-4.785,10.395-4.785,16.385c0,4.06,1.111,7.54,3.336,10.44c2.221,2.9,5.654,4.35,10.295,4.35
		c2.705,0,5.221-0.675,7.539-2.03c2.32-1.351,4.301-3.09,5.945-5.22c1.641-2.125,2.9-4.54,3.77-7.25
		C496.959,45.644,497.395,42.839,497.395,39.939z" />
	<path fill="#FFFFFF" d="M741.283,292.239h-59.45l23.49-120.35h-0.87l-47.851,120.35h-38.859l-4.061-120.35h-1.16l-18.27,120.35
		h-54.52l35.67-205.32h71.92l6.09,110.78h1.16l42.63-110.78h79.75L741.283,292.239z" />
</g>
<g>
</g>
<g>
</g>
<g>
</g>
<g>
</g>
<g>
</g>
<g>
</g>
</svg>
