<?xml version="1.0" encoding="utf-8"?>
<!-- Generator: Adobe Illustrator 16.0.0, SVG Export Plug-In . SVG Version: 6.00 Build 0)  -->
<!DOCTYPE svg PUBLIC "-//W3C//DTD SVG 1.1//EN" "http://www.w3.org/Graphics/SVG/1.1/DTD/svg11.dtd" [
	<!ENTITY ns_flows "http://ns.adobe.com/Flows/1.0/">
	<!ENTITY ns_extend "http://ns.adobe.com/Extensibility/1.0/">
	<!ENTITY ns_ai "http://ns.adobe.com/AdobeIllustrator/10.0/">
	<!ENTITY ns_graphs "http://ns.adobe.com/Graphs/1.0/">
]>
<svg version="1.1" id="Layer_1" xmlns:x="&ns_extend;" xmlns:i="&ns_ai;" xmlns:graph="&ns_graphs;"
	 xmlns="http://www.w3.org/2000/svg" xmlns:xlink="http://www.w3.org/1999/xlink" xmlns:a="http://ns.adobe.com/AdobeSVGViewerExtensions/3.0/"
	 x="0px" y="0px" width="960px" height="560px" viewBox="0 0 960 560" enable-background="new 0 0 960 560" xml:space="preserve">
<path fill-rule="evenodd" clip-rule="evenodd" d="M927.49,462.424c-3.908-10.627,3.115-10.894,10.369-10.944c0,1.81,0,3.617,0,5.426
	c-4.714-0.661-5.07,7.792-10.741,5.133L927.49,462.424z"/>
<path fill-rule="evenodd" clip-rule="evenodd" d="M465.24,163.584c5.889-1.033,2.713-4.196,1.564-6.814
	c-1.229-2.8-3.019-4.47-6.25-2.644c-4.187,2.363-7.917,2.66-9.499-2.904c-1.38-4.856-2.561-10.131,3.097-13.186
	c8.2-4.427,13.819-11.139,19.221-18.559c7.204-9.895,18.482-14.208,29.705-17.501c4.106-1.203,9.023-1.874,13.677,2.588
	c5.823,5.583,15.442,3.752,22.323,8.568c4.146,2.901,8.064,4.98,2.596,9.996c-2.727,3.174-6.236,3.097-9.888,2.44
	c3.593,0.506,7.181,1.012,9.48-2.854c5.513-0.659,12.318,0.623,11.911-8.539c-0.066-1.443,2.854-1.949,3.102-1.221
	c4.355,12.741,9.424,0.623,13.661,0.023c7.591-1.07,16.765,1.561,22.402-2.395c8.518-5.974,14.831-2.196,23.417,1.079
	c-4.758-8.359-1.827-14.564,3.816-19.025c2.623-2.074,8.096-3.873,8.146,3.675c0.051,7.556,2.637,15.078-0.534,23.026
	c5.398-1.301,5.582-5.044,5.389-8.436c-0.798-13.898-0.135-15.676,13.816-15.965c5.539-0.114,4.308-0.938,3.171-4.252
	c-0.448-1.304,0.677-2.938,2.003-2.98c15.046-0.501,24.901-17.356,41.455-13.138c1.202,0.304,3.25,0.14,3.895-0.642
	c8.369-10.139,17.951-5.399,27.641-2.851c3.494,0.92,7.661,0.546,9.54,4.006c2.78,5.126-4.159,5.855-5.743,11.596
	c12.271-2.787,22.503,8.128,35.102,1.523c2.8-1.468,8.374-2.276,9.537,5.161c0.808,5.156,4.676,7.771,12.094,5.463
	c7.596-2.361,15.613-1.537,23.654-5.893c5.709-3.091,15.419,0.252,22.405,4.576c3.479,2.154,6.753,4.396,11.252,3.531
	c5.95-1.142,10.443,1.251,15.933,4.144c7.753,4.083,18.128,4.327,26.775,2.16c6.928-1.735,12.95-0.731,19.313,0.294
	c3.328,0.538,5.653,2.745,5.632,6.565c-0.025,5.73-3.078,12.107-2.798,16.301c0.663,9.864-6.58,7.479-10.454,10.184
	c-7.18,5.021-15.387,6.812-23.939,7.583c-4.442,0.4-8.555,2.408-8.083,7.289c1.163,12.047-8.555,16.662-14.534,24.61
	c-6.663-15.401-6.4-16.524,4.56-26.083c4.032-3.516,7.873-7.249,12.239-11.286c-3.971-2.196-7.205,4.104-10.901,0.002
	c-1.958-2.175-5.916-1.592-7.273,0.708c-5.623,9.554-14.369,8.854-23.067,7.331c-15.093-2.644-22.851,7.694-31.943,16.816
	c5.177,6.34,16.003,0.954,19.412,10.322c2.024,5.566,1.619,10.255-1.85,15.205c-1.904-3.582,0.099-8.054-2.967-12.327
	c-2.804,7.786-6.181,14.534-11.528,19.981c-3.374,3.437-6.178,6.923-11.927,7.94c-7.953,1.407-10.72,7.948-8.652,16.54
	c0.827,3.436,1.194,6.44-2.829,7.699c-4.412,1.378-3.622-2.535-4.398-4.771c-2.363-6.814-7.161-10.756-14.328-10.881
	c-2.996-0.053-7.638,4.12-5.605,5.119c9.939,4.888,1.571,14.389,6.512,21.081c4.045,5.477-4.397,19.306-12.401,23.062
	c-5.641,2.65-11.731,4.666-17.836,5.919c-10.822,2.223-11.641,3.364-5.582,11.927c1.29,1.826,2.938,3.328,3.553,5.625
	c1.322,4.934-0.04,8.352-4.23,11.663c-4.518,3.565-7.09,1.431-10.228-1.443c-2.484-2.276-5.136-7.226-8.55-4.261
	c-3.79,3.293-2.002,8.516,1.016,12.287c3.483,4.354,9.606,7.337,6.55,15.468c-7.89-5.262-9.931-13.245-11.578-21.28
	c-1.409-6.862,1.562-15.451-9.57-17.684c-2.95-0.592-2.574-7.244-5.802-9.979c-2.212-1.873-2.803-5.473-7.232-4.875
	c-6.311,0.852-24.756,16.549-25.911,23.265c-0.905,5.274-0.609,10.984-7.792,13.297c-5.519-7.749-8.488-16.662-11.087-25.728
	c-0.925-3.219-2.784-5.521-4.785-8.221c-10.146-13.677-26.012-9.281-38.709-14.257c-1.751-0.821-3.37-0.074-5.008,0.432
	c1.696-0.564,3.372-1.237,5.223-0.776c-0.44,1.825-0.171,3.507,1.056,4.967c6.616,7.874,6.794,11.589-1.562,17.073
	c-11.056,7.256-22.496,14.266-36.32,15.22c-1.001-9.415-8.912-15.187-12.431-23.274c3.651,7.975,10.865,13.986,12.738,22.934
	c2.082,3.714,4.366,6.397,9.526,5.237c3.729-0.84,7.684-2.851,12.359-0.43c-2.362,9.928-7.304,18.148-15.299,24.393
	c-3.588,2.801-6.55,6.139-9.784,9.243c-5.948,5.708-7.53,12.193-4.767,19.59c3.873,10.367,4.625,19.33-7.625,24.74
	c-2.303,1.018-4.994,3.394-4.541,6.256c2.085,13.129-8.012,20.463-13.734,29.86c-5.862,9.625-16.209,8.449-25.296,10.129
	c-2.442,0.449-4.311-1.068-5.206-3.397c-5.778-15.029-11.602-30.041-17.193-45.14c-1.143-3.086,0.169-6.483,1.538-9.178
	c5.251-10.337,2.089-19.139-4.289-27.505c-1.907-2.501-4.287-4.666-4.337-8.162c-0.059-4.086,4.783-10.076-1.442-11.774
	c-6.931-1.889-12.32-7.871-21.346-5.188c-21.722,6.462-30.418,2.557-43.08-16.051c-0.984-1.446-2.346-3.208-2.237-4.733
	c1.036-14.686-2.274-30.717,13.234-40.919c6.835-4.496,6.88-14.227,13.611-19.279c1.818-1.365,0.43-4.576-1.914-5.45
	c-9.456-3.523-4.202-10.826-3.749-16.22c0.564-6.734,6.707-4.008,10.807-4.241c3.096-0.178,6.716,0.723,8.049-3.19
	c1.983-5.833-2.642-8.764-6.134-11.972c2.834-4.679,9.493-3.333,11.71-8.312l-0.456,0.369c7.128-1.918,11.002-9.048,18.023-11.199
	c5.398-1.653,1.551-6.086,2.563-9.018c2.635-7.625,5.089-3.571,7.358,0.386c-1.261,5.651,3.579,4.401,5.893,4.459
	c10.988,0.275,19.01-9.93,17.917-22.228c0.753,14.131-8.618,24.013-20.799,21.923C466.151,167.506,464.342,166.573,465.24,163.584z"
	/>
<path fill-rule="evenodd" clip-rule="evenodd" d="M184.465,130.142c8.383,6.764,10.591,6.603,15.494-1.558
	c1.346-2.239,3.446-2.273,5.444-2.867l0.34,0.686l-0.687-0.342c-0.797-5.916,3.071-10.852,3.131-16.93
	c0.066-6.631,6.344-4.066,10.297-4.135c2.867,6.496-9.344,5.469-5.002,13.525c3.965,7.357,11.33,10.422,15.927,16.622
	c1.096,1.475,2.955-0.941,3.925-2.374c2.058-3.044,1.987-5.956-0.959-8.367c-2.248-1.841-5.25-1.707-7.331-5.01
	c-2.692-4.276-3.313-7.445,0.304-10.452c2.371-1.971,6.592-5.418,6.855,2.038c0.041,1.15,1.305,1.74,1.715,0.983
	c1.869-3.455,5.227-6.91,8.356-4.991c11.28,6.917,26.711,6.517,35.229,16.042c5.473,6.117,11.231,11.13,17.308,16.352
	c3.572,3.068-1.114,5.41-3.771,6.263c-2.871,0.919-4.594-4.221-8.233-2.657c0,1.03-0.245,1.923,0.041,2.591
	c1.488,3.462,9.333,4.883,3.86,10.486c-4.08,4.178-9.735,3.749-13.374-0.026c-5.149-5.342-11.204-6.544-17.988-6.237
	c0.254-3.882,2.933-3.391,4.899-4.115c4.709-1.73,7.202-5.373,6.811-10.25c-0.254-3.166-13.826-10.475-17.374-10.33
	c-6.788,0.278-6.743,4.758-5.744,9.368c0.918,4.233-1.167,6.038-4.587,6.695c-3.347,0.644-5.707,2.3-7.46,5.068l-0.106,0.379
	c-4.988,3.775-10.31,7.188-14.894,11.4c-9.773,8.984-8.363,15.136,4.292,20.739c2.055,0.912,4.12,1.799,6.152,2.764
	c7.716,3.656,16.812,5.64,19.025,15.98c0.137,0.636,2.314,0.834,4.042,1.402c1.773-5.447-0.076-11.48,5.363-15.96
	c4.741-3.902-3.573-8.597-1.415-13.715c1.346-3.193-1.876-8.351,1.762-10.012c3.833-1.751,8.999-1.857,12.875,1.242
	c2.387,1.911,5.903,2.851,6.774,6.285c1.885,7.426,5.147,8.825,11.302,3.539c3.844-3.298,5.897,0.909,6.92,3.474
	c2.775,6.959,7.365,12.044,13.61,15.962c1.844,1.155,4.631,2.933,3.958,5.076c-2.522,8.022,5.475,11.419,7.498,16.911
	c-2.403,4.133-5.116,1.362-7.442,1.303c-2.204-0.055-4.393-0.773-6.43-1.168c-1.067-3.839,2.711-6.816,0.898-11.421
	c-6.303,4.66-13.801,2.578-22.831,4.56c7.78,3.116,2.174,14.05,12.214,13.642c-0.286,3.598-3.026,4.624-4.809,4.588
	c-17.58-0.347-26.013,10.325-31.257,25.167c-0.579,1.637-1.38,3.78-2.71,4.472c-11.125,5.789-13.316,14.59-8.022,25.773
	c-2.018,0-2.956,0.277-3.586-0.045c-4.815-2.47-2.933-10.568-10.207-11.439c-9.001-1.08-17.617,1.083-26.111,2.795
	c-8.095,1.631-6.294,9.992-7.157,15.874c-0.779,5.323,2.016,10.022,6.617,12.415c4.422,2.297,8.798,1.044,11.465-3.814
	c1.501-2.734,4.066-3.868,6.852-2.783c3.963,1.546,0.869,4.556,0.899,6.913c0.017,1.343-0.209,2.691-0.325,4.037
	c14.512,0.283,6.901,23.429,24.701,22.804c8.762-0.308,17.784,7.792,28.196,6.626c2.409-0.271,3.785,2.029,5.491,3.497
	c4.742,4.077,9.258,8.422,16.236,8.788c3.64,0.19,7.547,2.413,8.668,5.825c4.267,12.99,15.545,14.651,26.337,16.967
	c3.681,0.79,6.709,2.249,9.76,4.273c8.758,5.812,9.522,7.778,3.161,15.742c-4.104,5.138-6.261,10.357-7.204,16.938
	c-1.292,9.02-4.339,17.462-15.748,19.2c-4.276,0.651-7.503,3.815-9.222,8.852c-3.475,10.176-8.392,19.756-19.694,23.573
	c-3.015,1.021-2.485,3.172-2.474,5.357c0.013,2.482-1.246,5.237-3.292,5.399c-12.812,1.007-18.474,12.275-19.646,20.554
	c-1.521,10.746-15.766,20.891-2.392,33.027c-14.79-0.56-24.315-15.322-19.926-29.161c0.665-2.096,3.152-4.162,2.867-5.93
	c-3.701-22.84,6.637-44.059,7.449-66.38c0.266-7.305-2.669-11.167-8.1-15.6c-11.515-9.402-18.895-21.663-19.245-37.167
	c-0.04-1.746-0.155-4.002,0.803-5.175c4.96-6.075,8.44-12.359,7.777-20.718c-0.271-3.424,5.046-5.084,5.181-10.098
	c-11.821-4.363-18.608-16.431-31.429-21.149c-8.001-2.943-16.93-1.528-24.25-6.779c-4.321-3.1-8.791-4.767-10.811-10.992
	c-2.603-8.018-9.737-13.379-16.386-19.338c-1.458,4.436,2.685,6.199,2.372,9.393c-0.588,0.99-1.338,1.168-1.986,0.305
	c-2.886-3.845-6.268-7.098-8.688-11.573c-3.485-6.44-6.804-13.095-13.719-17.87c-5.903-4.075-11.04-11.713-9.928-19.817
	c2.873-20.975-9.739-35.011-21.033-49.59c-9.739-12.574-25.438-13.04-39.011-17.73c-4.24,6.96-14.676,0.156-18.895,9.008
	c-1.896,3.977-7.695,9.315-12.065,0.135c-0.633-1.33-4.533-0.752-6.214-2.005c-4.165-3.105-10.791-4.252-11.398-10.507
	c-0.655-6.761,7.217-5.561,10.115-9.122c0.531-2.003-0.816-2.355-2.169-2.538c-4.177-0.57-11.211,1.656-10.995-4.393
	c0.244-6.833,7.582-2.898,12.702-4.218c-2.801-4.35-8.528-4.774-10.746-8.992c11.005-10.95,23.118-14.854,38.971-10.269
	c11.054,3.198,23.306,2.112,34.358,6.703c1.17,0.485,2.832,0.67,3.962,0.226c16.905-6.668,33.89-2.962,50.931,0.117
	c-1.202-13.051-1.538-13.491-11.149-10.807c-3.555,0.993-6.17,0.22-8.574-2.181c-2.453-2.451-0.824-4.867-0.03-7.453
	c1.193-3.895,3.359-7.016,7.547-6.022c5.107,1.213,10.675,0.745,15.228,4.533c5.08,4.229,11.448,5.89,17.717,3.833
	c6.513-2.138,10.384-0.644,12.452,5.759c0.713,2.21,1.839,4.075,3.744,5.477c8.812,6.48,1.271,6.96-3.161,8.579
	c-4-0.419-7.536,1.443-11.277,2.293C176.772,131.729,180.475,130.306,184.465,130.142z"/>
<path fill-rule="evenodd" clip-rule="evenodd" d="M221.672,64.734c-2.13-4.369,0.353-5.646,4.079-6.054
	c23.209-2.538,45.855-10.539,70.025-3.05c6.856,2.125,16.409-4.075,23.999-8.499c7.316-4.263,14.691-9.521,23.17-2.042
	c1.47,1.295,3.404,1.21,4.97,0.002c4.186-3.234,6.2-2.308,7.02,2.965c1.073,6.896,4.511,11.673,10.898,15.753
	c5.546,3.54,11.762,8.608,11.448,17.072c-0.089,2.414,1.665,4.033,3.173,5.726c7.638,8.595,8.084,15.343-1.279,20.029
	c-10.872,5.442-13.415,18.843-25.366,22.959c-4.679,1.611-3.227,8.905-4.622,13.443c-4.654,15.141-6.609,16.733-20.825,11.567
	c-7.33-2.663-18.582-19.817-19.639-27.644c-0.777-5.762,5.013-7.018,5.859-11.344c-3.223-1.754-10.735,2.156-6.821-7.9
	c3.785-9.726-8.594-24.443-19.617-26.629c-11.158-2.215-5.152-9.421-4.352-15.104l0.35,0.352
	c-13.345,3.584-24.755,9.882-31.244,22.79c-0.86,1.711-1.82,3.874-3.489,3.418c-7.622-2.083-15.902,1.737-25.39-3.185
	c8.008-2.04,6.039-9.066,9.882-12.701c-1.998-0.607-2.986-2.032-3.282-4.019c-0.416-2.13,2.635-4.488,1.73-5.037
	c-1.646-0.996-3.771,1.317-5.934,1.402C223.826,68.701,221.812,67.754,221.672,64.734z"/>
<path fill-rule="evenodd" clip-rule="evenodd" d="M843.836,378.13c7.278,14.494,15.949,25.788,24.668,37.062
	c4.57,5.911,4.626,12.627,1.808,19.157c-2.485,5.758-5.384,11.416-8.768,16.689c-4.747,7.392-21.489,7.892-25.592-0.343
	c-3.996-8.017-11.921-9.472-17.468-14.563c-5.887-5.407-13.976-1.525-20.475,1.356c-24.697,10.967-24.628,11.128-32.033-13.795
	c-3.139-10.565-1.48-14.608,8.936-19.099c5.438-2.343,10.331-4.486,13.695-10.031c5.805-9.559,18.056-8.801,26.396-14.82
	c2.718-1.963,10.309-2.562,10.772,4.886c0.432,6.973,6.099,8.139,10.231,8.4c5.877,0.374,3.548-5.932,4.822-9.35
	C841.273,382.491,842.037,381.418,843.836,378.13z"/>
<path fill-rule="evenodd" clip-rule="evenodd" d="M860.026,375.321c-6.669-2.374-12.977-3.675-19.406-4.297
	c-10.113-0.976-17.065-12.811-26.505-19.211c6.51,0.716,11.946,1.499,17.807,1.783C844.273,354.188,855.398,360.645,860.026,375.321
	z"/>
<path fill-rule="evenodd" clip-rule="evenodd" d="M568.247,364.054c1.07,10.208-3.741,18.561-5.924,27.402
	c-0.747,3.022-2.629,6.139-6.454,5.477c-4.433-0.771-5.304-4.767-4.904-8.296C552.166,378.063,554.746,368.102,568.247,364.054z"/>
<path fill-rule="evenodd" clip-rule="evenodd" d="M765.046,369.819c-25.494,0.675-32.867-19.397-44.31-34.31
	c11.353,3.285,21.68,11.315,24.996,20.622c2.974,8.338,6.619,8.836,12.568,9.644C760.585,366.086,762.636,366.459,765.046,369.819z"
	/>
<path fill-rule="evenodd" clip-rule="evenodd" d="M221.672,64.734c0.462,0.527,0.991,0.978,1.587,1.351
	c5.577,0.268,7.822,4.777,10.734,8.436c0.09,0.898,0.06,1.611-0.091,2.138c-7.11,2.143-14.167,10.104-21.423,0.877
	c-1.7-2.162-7.043-2.287-4.956-6.618c1.66-3.447,3.431-7.672,8.784-6.812C218.084,64.393,219.884,64.528,221.672,64.734z"/>
<path fill-rule="evenodd" clip-rule="evenodd" d="M778.474,243.394c1.261-7.646,4.639-10.17,8.857-11.482
	c10.562-3.285,18.961-8.043,18.468-21.128c-0.116-3.089,2.379-5.953,5.002-7.627c2.173-1.385,4.213,0.76,5.686,2.236
	c1.966,1.971-0.175,3.833-1.494,4.045c-5.691,0.919-5.585,3.468-5.362,8.878c0.334,8.149-3.285,15.48-13.178,17.208
	C790.703,236.527,785.134,238.495,778.474,243.394z"/>
<path fill-rule="evenodd" clip-rule="evenodd" d="M753.644,345.977c7.085-1.783,13.518-0.364,17.979-6.562
	c3.24-4.498,5.432,0.096,5.924,2.876c1.103,6.278-2.167,12.58-6.771,14.738c-4.329,2.028-11.484,1.443-14.608-5.186
	C755.419,350.264,754.78,348.632,753.644,345.977z"/>
<path fill-rule="evenodd" clip-rule="evenodd" d="M616.316,71.694c-13.405,7.392-33.053,7.623-33.059,29.623
	c-10.448-4.332-9.574-3.831-4.636-12.41C587.265,73.893,601.753,73.347,616.316,71.694z"/>
<path fill-rule="evenodd" clip-rule="evenodd" d="M438.075,183.229c-7.216-0.535-17.638,2.212-11.083-11.761
	c0.998-2.122-2.93-3.823-4.921-5.399l0.385,0.435c-0.009-3.052-1.547-6.115-0.025-9.148c0.875-1.744,2.077-2.666,4.169-1.616
	c3.126,1.568,12.689,22.943,11.875,26.859c-0.078,0.376-0.562,0.667-0.856,0.999L438.075,183.229z"/>
<path fill-rule="evenodd" clip-rule="evenodd" d="M483.304,51.265c0.232,4.027,7.566,4.56,5.036,9.736
	c-1.771,3.619-3.877,7.815-7.73,9.023c-3.508,1.102-4.825-3.107-6.608-5.593c-2.219-3.094-7.461-3.987-6.604-10.179
	c5.399,0.178,11.286,1.041,16.011-2.94L483.304,51.265z"/>
<path fill-rule="evenodd" clip-rule="evenodd" d="M375.326,123.238c6.519,1.067,12.498,0.323,18.493-0.48
	c2.942-0.395,5.442,1.595,5.918,4.319c0.394,2.241-1.976,3.658-3.972,4.816C386.763,137.115,380.476,134.744,375.326,123.238z"/>
<path fill-rule="evenodd" clip-rule="evenodd" d="M217.18,89.686c8.372,12.46,21.378,1.346,32.164,9.326
	c-11.048,4.53-20.631,3.267-29.882,1.688C215.07,99.95,216.111,95.376,217.18,89.686z"/>
<path fill-rule="evenodd" clip-rule="evenodd" d="M152.375,97.136c0.852-2.114,2.709-5.267,4.327-4.202
	c7.365,4.854,16.724-3.789,23.961,3.566C167.305,102.867,166.366,102.877,152.375,97.136z"/>
<path fill-rule="evenodd" clip-rule="evenodd" d="M927.118,462.038c-2.088,6.544-7.844,10.549-11.255,16.211
	c-1.558,2.586-4.549,2.864-6.962,0.964c-3.481-2.744-0.498-5.15,1.454-6.053c6.197-2.876,8.624-11.721,17.135-10.736
	L927.118,462.038z"/>
<path fill-rule="evenodd" clip-rule="evenodd" d="M727.177,324.941c6.06-4.838,10.825-8.737,15.703-12.494
	c1.822-1.402,3.548-0.223,4.448,1.264c0.506,0.834,0.002,3.394-0.297,3.437C740.121,318.14,737.875,329.061,727.177,324.941z"/>
<path fill-rule="evenodd" clip-rule="evenodd" d="M483.407,51.313c7.272-1.394,14.521-2.077,24.551,0.969
	c-6.475,4.703-10.419,7.435-16.399,3.137c-2.469-1.775-5.486-2.793-8.255-4.154L483.407,51.313z"/>
<path fill-rule="evenodd" clip-rule="evenodd" d="M191.318,112.415c3.399-3.423,6.192-9.59,11.398-3.38
	c1.791,2.133,3.1,4.93,0.411,7.084C197.917,120.292,195.515,113.914,191.318,112.415z"/>
<path fill-rule="evenodd" clip-rule="evenodd" d="M422.071,166.069c-1.04,6.02-0.886,12.935-10.258,13.109
	c-2.727-9.585,1.871-12.817,10.644-12.674L422.071,166.069z"/>
<path fill-rule="evenodd" clip-rule="evenodd" d="M231.785,146.6l0.106-0.379c5.235-2.676,8.169,0.996,11.042,4.936
	C238.757,151.038,231.842,159.333,231.785,146.6z"/>
<path fill-rule="evenodd" clip-rule="evenodd" d="M189.535,95.594c5.143-4.766,8.56-5.712,11.956-2.17
	c0.549,0.572,0.266,2.731-0.391,3.54C196.807,102.244,194.667,95.806,189.535,95.594z"/>
<path fill-rule="evenodd" clip-rule="evenodd" d="M783.593,350.686c2.495,0.243,4.636,0.543,4.985,3.485
	c0.382,3.186-0.543,4.828-4.117,5.111c-3.195,0.252-3.905-1.438-3.856-3.778C780.648,353.4,780.726,350.931,783.593,350.686z"/>
<path fill-rule="evenodd" clip-rule="evenodd" d="M197.07,82.417c-1.301,0.813-1.886,1.321-2.001,1.231
	c-3.019-2.368-8.354,0.639-10.128-4.257c-0.338-0.933,0.541-2.308,0.857-3.479C189.77,77.252,194.463,77.3,197.07,82.417z"/>
<path fill-rule="evenodd" clip-rule="evenodd" d="M152.662,87.996c-6.027,4.337-6.027,4.337-13.954,4.334
	C144.784,86.986,144.787,86.984,152.662,87.996z"/>
<path fill-rule="evenodd" clip-rule="evenodd" d="M756.277,280.299c4.361,4.166-1.897,8.656,0.26,12.432
	C752.064,289.153,750.835,285.299,756.277,280.299z"/>
<path fill-rule="evenodd" clip-rule="evenodd" d="M856.829,467.174c-0.443,1.979-1.789,3.447-3.67,3.193
	c-2.488-0.334-3.573-2.48-3.778-4.87c-0.238-2.803,2.035-2.559,3.656-2.516C855.564,463.047,857.253,464.255,856.829,467.174z"/>
<path fill-rule="evenodd" clip-rule="evenodd" d="M768.846,309.09c-0.988,1.815-1.878,4.221-4.651,2.914
	c-1.349-0.633-3.487-1.904-2.218-3.854c0.845-1.295,2.736-2.393,4.297-2.62C768.47,305.209,768.986,307.077,768.846,309.09z"/>
<path fill-rule="evenodd" clip-rule="evenodd" d="M276.652,298.122c-3.697,1.892-7.181,3.134-8.454,0.865
	c-2.428-4.326,1.645-3.6,3.968-3.388C273.303,295.705,274.351,296.778,276.652,298.122z"/>
<path fill-rule="evenodd" clip-rule="evenodd" d="M240.574,287.347c5.553-1.882,8.381,0.395,12.037,2.832
	C247.898,291.448,244.949,288.346,240.574,287.347z"/>
<path fill-rule="evenodd" clip-rule="evenodd" fill="#FFFFFF" d="M425.003,230.42c5.41-2.959,9.465-5.855,12.275-11.859
	c3.652-7.799,12.15-10.889,20.406-13.148c2.489-0.681,4.282-0.387,5.887,1.669c1.104,1.412,2.211,3.137,3.726,3.854
	c4.98,2.353,10.414,11.151,13.765,7.328c4.374-4.992-6.443-6.062-8.209-10.786c-0.454-1.216-0.947-2.419-1.943-4.954
	c13.703,3.166,17.208,14.969,23.097,23.531c6.094-0.386,2.654-5.176,4.487-7.283c1.84-2.108,5.453-4.641,6.195-1.375
	c3.398,14.889,15.996,10.634,25.901,13.265c-0.789,8.57-2.89,14.013-13.836,13.167c-5.824-0.45-11.448-1.158-17.087-2.395
	c-2.164-0.474-5.704-2.12-6.25-1.407c-8.557,11.096-15.912,0.278-23.678-1.089c-2.197-0.387-5.194-1.643-4.837-3.9
	c1.838-11.615-6.356-7.662-11.982-8.33C443.283,225.564,435.038,232.558,425.003,230.42z"/>
<path fill-rule="evenodd" clip-rule="evenodd" fill="#FFFFFF" d="M465.24,163.584c4.145,4.676,9.066,2.663,11.742-0.578
	c3.68-4.461,9.177-10.29,7.103-15.763c-2.425-6.39-0.888-9.941,3.961-12.026c4.858-2.088,3.653-12.574,12.356-8.91
	c0.872,4.318-2.562,5.722-4.717,7.569c-3.836,3.288-4.529,8.655-1.875,10.796c12.049,9.721-0.763,15.112-3.579,21.667
	c-2.063,4.809-21.846,5.712-26.254,1.849c-1.295-1.137-0.163-3.349,1.587-4.422L465.24,163.584z"/>
<path fill-rule="evenodd" clip-rule="evenodd" fill="#FFFFFF" d="M545.271,211.739c-3.189,3.137-6.451,3.288-9.396,2.167
	c-5.608-2.13-10.929-3.744-16.912-0.994c-2.294,1.052-5.938,1.176-7.301-1.579c-2.12-4.276,0.885-7.683,3.423-10.817
	c1.683-2.077,4.104-4.827,6.539-1.852c4.514,5.513,6.734,3.34,9.383-1.529c0.657-1.208,4.409-1.126,4.301,0.62
	C534.846,205.243,544.002,205.196,545.271,211.739z"/>
<path fill-rule="evenodd" clip-rule="evenodd" fill="#FFFFFF" d="M575.678,196.129c-4.23,5.362-6.032,10.322-0.574,14.839
	c1.791,1.483,2.21,3.462,2.009,5.939c-0.311,3.791,4.903,9.533-3.196,10.314c-6.196,0.599-9.483-2.456-6.718-9.196
	c1.033-2.517-0.875-4.167-1.828-6.128C559.564,199.918,560.159,198.876,575.678,196.129z"/>
<path fill-rule="evenodd" clip-rule="evenodd" fill="#FFFFFF" d="M549.214,294.922c-12.775-10.611-16.481-26.137-21.814-40.771
	c9.061,12.698,22.35,23.158,21.507,41.112L549.214,294.922z"/>
<path fill-rule="evenodd" clip-rule="evenodd" fill="#FFFFFF" d="M585.733,258.002c-11.424,8.292-13.166,7.604-22.194-10.163
	c8.576,3.07,13.854,10.213,21.979,10.507L585.733,258.002z"/>
<path fill-rule="evenodd" clip-rule="evenodd" fill="#FFFFFF" d="M541.267,122.715c1.292,8.944-6.465,5.887-10.399,7.302
	c-1.571,0.567-2.973-2.715-2.864-5.076c0.154-3.359,2.284-2.681,4.542-2.374c3.015,0.408,6.085,0.395,9.129,0.562L541.267,122.715z"
	/>
<path fill-rule="evenodd" clip-rule="evenodd" fill="#FFFFFF" d="M184.465,130.142c-7.891,7.625-16.976,4.157-25.895,2.096
	c8.858,2.551,16.612-6.504,25.687-1.767L184.465,130.142z"/>
<path fill-rule="evenodd" clip-rule="evenodd" fill="#FFFFFF" d="M205.056,126.062c2.502,0.432,5.681-0.09,5.88,3.791
	c0.1,1.956-0.9,3.938-2.762,4.038c-4.399,0.238-1.101-2.856-1.581-4.369c-0.401-1.267-0.795-2.538-1.19-3.805L205.056,126.062z"/>
<path fill-rule="evenodd" clip-rule="evenodd" fill="#FFFFFF" d="M233.993,74.521c-4.522-1.611-7.899-4.679-10.734-8.436
	c7.804-4.928,14.984,3.285,22.682,0.858C245.208,74.905,234.244,66.035,233.993,74.521z"/>
<path fill-rule="evenodd" clip-rule="evenodd" fill="#FFFFFF" d="M284.143,66.337c0.499-1.621,1-3.245,1.5-4.869
	c1.251-4.072,4.11-1.966,6.385-1.528c1.334,0.257,2.353,1.454,2.101,2.911c-0.481,2.782-2.869,3.047-5.059,3.229
	c-1.745,0.146-3.517-0.05-5.276-0.095L284.143,66.337z"/>
<path fill-rule="evenodd" clip-rule="evenodd" d="M462.296,216.431c-0.117,1.609-0.829,2.684-2.448,2.22
	c-0.559-0.162-1.22-1.37-1.151-2.026c0.151-1.418,1.263-2.361,2.672-2.419C461.655,214.193,462.003,215.695,462.296,216.431z"/>
</svg>
