<?xml version="1.0" encoding="utf-8"?><svg width="1880" height="878" viewBox="0 0 1880 878" xmlns="http://www.w3.org/2000/svg" xmlns:xlink="http://www.w3.org/1999/xlink"><svg width="960" height="560" viewBox="0 0 960 560" id="World_Map" xmlns="http://www.w3.org/2000/svg"><path fill-rule="evenodd" clip-rule="evenodd" d="M927.49 462.424c-3.908-10.627 3.115-10.894 10.369-10.944v5.426c-4.714-.661-5.07 7.792-10.741 5.133l.372.385zM465.24 163.584c5.889-1.033 2.713-4.196 1.564-6.814-1.229-2.8-3.019-4.47-6.25-2.644-4.187 2.363-7.917 2.66-9.499-2.904-1.38-4.856-2.561-10.131 3.097-13.186 8.2-4.427 13.819-11.139 19.221-18.559 7.204-9.895 18.482-14.208 29.705-17.501 4.106-1.203 9.023-1.874 13.677 2.588 5.823 5.583 15.442 3.752 22.323 8.568 4.146 2.901 8.064 4.98 2.596 9.996-2.727 3.174-6.236 3.097-9.888 2.44 3.593.506 7.181 1.012 9.48-2.854 5.513-.659 12.318.623 11.911-8.539-.066-1.443 2.854-1.949 3.102-1.221 4.355 12.741 9.424.623 13.661.023 7.591-1.07 16.765 1.561 22.402-2.395 8.518-5.974 14.831-2.196 23.417 1.079-4.758-8.359-1.827-14.564 3.816-19.025 2.623-2.074 8.096-3.873 8.146 3.675.051 7.556 2.637 15.078-.534 23.026 5.398-1.301 5.582-5.044 5.389-8.436-.798-13.898-.135-15.676 13.816-15.965 5.539-.114 4.308-.938 3.171-4.252-.448-1.304.677-2.938 2.003-2.98 15.046-.501 24.901-17.356 41.455-13.138 1.202.304 3.25.14 3.895-.642 8.369-10.139 17.951-5.399 27.641-2.851 3.494.92 7.661.546 9.54 4.006 2.78 5.126-4.159 5.855-5.743 11.596 12.271-2.787 22.503 8.128 35.102 1.523 2.8-1.468 8.374-2.276 9.537 5.161.808 5.156 4.676 7.771 12.094 5.463 7.596-2.361 15.613-1.537 23.654-5.893 5.709-3.091 15.419.252 22.405 4.576 3.479 2.154 6.753 4.396 11.252 3.531 5.95-1.142 10.443 1.251 15.933 4.144 7.753 4.083 18.128 4.327 26.775 2.16 6.928-1.735 12.95-.731 19.313.294 3.328.538 5.653 2.745 5.632 6.565-.025 5.73-3.078 12.107-2.798 16.301.663 9.864-6.58 7.479-10.454 10.184-7.18 5.021-15.387 6.812-23.939 7.583-4.442.4-8.555 2.408-8.083 7.289 1.163 12.047-8.555 16.662-14.534 24.61-6.663-15.401-6.4-16.524 4.56-26.083 4.032-3.516 7.873-7.249 12.239-11.286-3.971-2.196-7.205 4.104-10.901.002-1.958-2.175-5.916-1.592-7.273.708-5.623 9.554-14.369 8.854-23.067 7.331-15.093-2.644-22.851 7.694-31.943 16.816 5.177 6.34 16.003.954 19.412 10.322 2.024 5.566 1.619 10.255-1.85 15.205-1.904-3.582.099-8.054-2.967-12.327-2.804 7.786-6.181 14.534-11.528 19.981-3.374 3.437-6.178 6.923-11.927 7.94-7.953 1.407-10.72 7.948-8.652 16.54.827 3.436 1.194 6.44-2.829 7.699-4.412 1.378-3.622-2.535-4.398-4.771-2.363-6.814-7.161-10.756-14.328-10.881-2.996-.053-7.638 4.12-5.605 5.119 9.939 4.888 1.571 14.389 6.512 21.081 4.045 5.477-4.397 19.306-12.401 23.062a80.246 80.246 0 0 1-17.836 5.919c-10.822 2.223-11.641 3.364-5.582 11.927 1.29 1.826 2.938 3.328 3.553 5.625 1.322 4.934-.04 8.352-4.23 11.663-4.518 3.565-7.09 1.431-10.228-1.443-2.484-2.276-5.136-7.226-8.55-4.261-3.79 3.293-2.002 8.516 1.016 12.287 3.483 4.354 9.606 7.337 6.55 15.468-7.89-5.262-9.931-13.245-11.578-21.28-1.409-6.862 1.562-15.451-9.57-17.684-2.95-.592-2.574-7.244-5.802-9.979-2.212-1.873-2.803-5.473-7.232-4.875-6.311.852-24.756 16.549-25.911 23.265-.905 5.274-.609 10.984-7.792 13.297-5.519-7.749-8.488-16.662-11.087-25.728-.925-3.219-2.784-5.521-4.785-8.221-10.146-13.677-26.012-9.281-38.709-14.257-1.751-.821-3.37-.074-5.008.432 1.696-.564 3.372-1.237 5.223-.776-.44 1.825-.171 3.507 1.056 4.967 6.616 7.874 6.794 11.589-1.562 17.073-11.056 7.256-22.496 14.266-36.32 15.22-1.001-9.415-8.912-15.187-12.431-23.274 3.651 7.975 10.865 13.986 12.738 22.934 2.082 3.714 4.366 6.397 9.526 5.237 3.729-.84 7.684-2.851 12.359-.43-2.362 9.928-7.304 18.148-15.299 24.393-3.588 2.801-6.55 6.139-9.784 9.243-5.948 5.708-7.53 12.193-4.767 19.59 3.873 10.367 4.625 19.33-7.625 24.74-2.303 1.018-4.994 3.394-4.541 6.256 2.085 13.129-8.012 20.463-13.734 29.86-5.862 9.625-16.209 8.449-25.296 10.129-2.442.449-4.311-1.068-5.206-3.397-5.778-15.029-11.602-30.041-17.193-45.14-1.143-3.086.169-6.483 1.538-9.178 5.251-10.337 2.089-19.139-4.289-27.505-1.907-2.501-4.287-4.666-4.337-8.162-.059-4.086 4.783-10.076-1.442-11.774-6.931-1.889-12.32-7.871-21.346-5.188-21.722 6.462-30.418 2.557-43.08-16.051-.984-1.446-2.346-3.208-2.237-4.733 1.036-14.686-2.274-30.717 13.234-40.919 6.835-4.496 6.88-14.227 13.611-19.279 1.818-1.365.43-4.576-1.914-5.45-9.456-3.523-4.202-10.826-3.749-16.22.564-6.734 6.707-4.008 10.807-4.241 3.096-.178 6.716.723 8.049-3.19 1.983-5.833-2.642-8.764-6.134-11.972 2.834-4.679 9.493-3.333 11.71-8.312l-.456.369c7.128-1.918 11.002-9.048 18.023-11.199 5.398-1.653 1.551-6.086 2.563-9.018 2.635-7.625 5.089-3.571 7.358.386-1.261 5.651 3.579 4.401 5.893 4.459 10.988.275 19.01-9.93 17.917-22.228.753 14.131-8.618 24.013-20.799 21.923-2.429-.416-4.238-1.349-3.34-4.338zM184.465 130.142c8.383 6.764 10.591 6.603 15.494-1.558 1.346-2.239 3.446-2.273 5.444-2.867l.34.686-.687-.342c-.797-5.916 3.071-10.852 3.131-16.93.066-6.631 6.344-4.066 10.297-4.135 2.867 6.496-9.344 5.469-5.002 13.525 3.965 7.357 11.33 10.422 15.927 16.622 1.096 1.475 2.955-.941 3.925-2.374 2.058-3.044 1.987-5.956-.959-8.367-2.248-1.841-5.25-1.707-7.331-5.01-2.692-4.276-3.313-7.445.304-10.452 2.371-1.971 6.592-5.418 6.855 2.038.041 1.15 1.305 1.74 1.715.983 1.869-3.455 5.227-6.91 8.356-4.991 11.28 6.917 26.711 6.517 35.229 16.042 5.473 6.117 11.231 11.13 17.308 16.352 3.572 3.068-1.114 5.41-3.771 6.263-2.871.919-4.594-4.221-8.233-2.657 0 1.03-.245 1.923.041 2.591 1.488 3.462 9.333 4.883 3.86 10.486-4.08 4.178-9.735 3.749-13.374-.026-5.149-5.342-11.204-6.544-17.988-6.237.254-3.882 2.933-3.391 4.899-4.115 4.709-1.73 7.202-5.373 6.811-10.25-.254-3.166-13.826-10.475-17.374-10.33-6.788.278-6.743 4.758-5.744 9.368.918 4.233-1.167 6.038-4.587 6.695-3.347.644-5.707 2.3-7.46 5.068l-.106.379c-4.988 3.775-10.31 7.188-14.894 11.4-9.773 8.984-8.363 15.136 4.292 20.739 2.055.912 4.12 1.799 6.152 2.764 7.716 3.656 16.812 5.64 19.025 15.98.137.636 2.314.834 4.042 1.402 1.773-5.447-.076-11.48 5.363-15.96 4.741-3.902-3.573-8.597-1.415-13.715 1.346-3.193-1.876-8.351 1.762-10.012 3.833-1.751 8.999-1.857 12.875 1.242 2.387 1.911 5.903 2.851 6.774 6.285 1.885 7.426 5.147 8.825 11.302 3.539 3.844-3.298 5.897.909 6.92 3.474 2.775 6.959 7.365 12.044 13.61 15.962 1.844 1.155 4.631 2.933 3.958 5.076-2.522 8.022 5.475 11.419 7.498 16.911-2.403 4.133-5.116 1.362-7.442 1.303-2.204-.055-4.393-.773-6.43-1.168-1.067-3.839 2.711-6.816.898-11.421-6.303 4.66-13.801 2.578-22.831 4.56 7.78 3.116 2.174 14.05 12.214 13.642-.286 3.598-3.026 4.624-4.809 4.588-17.58-.347-26.013 10.325-31.257 25.167-.579 1.637-1.38 3.78-2.71 4.472-11.125 5.789-13.316 14.59-8.022 25.773-2.018 0-2.956.277-3.586-.045-4.815-2.47-2.933-10.568-10.207-11.439-9.001-1.08-17.617 1.083-26.111 2.795-8.095 1.631-6.294 9.992-7.157 15.874-.779 5.323 2.016 10.022 6.617 12.415 4.422 2.297 8.798 1.044 11.465-3.814 1.501-2.734 4.066-3.868 6.852-2.783 3.963 1.546.869 4.556.899 6.913.017 1.343-.209 2.691-.325 4.037 14.512.283 6.901 23.429 24.701 22.804 8.762-.308 17.784 7.792 28.196 6.626 2.409-.271 3.785 2.029 5.491 3.497 4.742 4.077 9.258 8.422 16.236 8.788 3.64.19 7.547 2.413 8.668 5.825 4.267 12.99 15.545 14.651 26.337 16.967 3.681.79 6.709 2.249 9.76 4.273 8.758 5.812 9.522 7.778 3.161 15.742-4.104 5.138-6.261 10.357-7.204 16.938-1.292 9.02-4.339 17.462-15.748 19.2-4.276.651-7.503 3.815-9.222 8.852-3.475 10.176-8.392 19.756-19.694 23.573-3.015 1.021-2.485 3.172-2.474 5.357.013 2.482-1.246 5.237-3.292 5.399-12.812 1.007-18.474 12.275-19.646 20.554-1.521 10.746-15.766 20.891-2.392 33.027-14.79-.56-24.315-15.322-19.926-29.161.665-2.096 3.152-4.162 2.867-5.93-3.701-22.84 6.637-44.059 7.449-66.38.266-7.305-2.669-11.167-8.1-15.6-11.515-9.402-18.895-21.663-19.245-37.167-.04-1.746-.155-4.002.803-5.175 4.96-6.075 8.44-12.359 7.777-20.718-.271-3.424 5.046-5.084 5.181-10.098-11.821-4.363-18.608-16.431-31.429-21.149-8.001-2.943-16.93-1.528-24.25-6.779-4.321-3.1-8.791-4.767-10.811-10.992-2.603-8.018-9.737-13.379-16.386-19.338-1.458 4.436 2.685 6.199 2.372 9.393-.588.99-1.338 1.168-1.986.305-2.886-3.845-6.268-7.098-8.688-11.573-3.485-6.44-6.804-13.095-13.719-17.87-5.903-4.075-11.04-11.713-9.928-19.817 2.873-20.975-9.739-35.011-21.033-49.59-9.739-12.574-25.438-13.04-39.011-17.73-4.24 6.96-14.676.156-18.895 9.008-1.896 3.977-7.695 9.315-12.065.135-.633-1.33-4.533-.752-6.214-2.005-4.165-3.105-10.791-4.252-11.398-10.507-.655-6.761 7.217-5.561 10.115-9.122.531-2.003-.816-2.355-2.169-2.538-4.177-.57-11.211 1.656-10.995-4.393.244-6.833 7.582-2.898 12.702-4.218-2.801-4.35-8.528-4.774-10.746-8.992 11.005-10.95 23.118-14.854 38.971-10.269 11.054 3.198 23.306 2.112 34.358 6.703 1.17.485 2.832.67 3.962.226 16.905-6.668 33.89-2.962 50.931.117-1.202-13.051-1.538-13.491-11.149-10.807-3.555.993-6.17.22-8.574-2.181-2.453-2.451-.824-4.867-.03-7.453 1.193-3.895 3.359-7.016 7.547-6.022 5.107 1.213 10.675.745 15.228 4.533 5.08 4.229 11.448 5.89 17.717 3.833 6.513-2.138 10.384-.644 12.452 5.759.713 2.21 1.839 4.075 3.744 5.477 8.812 6.48 1.271 6.96-3.161 8.579-4-.419-7.536 1.443-11.277 2.293 3.796-1.035 7.499-2.458 11.489-2.622z"/><path fill-rule="evenodd" clip-rule="evenodd" d="M221.672 64.734c-2.13-4.369.353-5.646 4.079-6.054 23.209-2.538 45.855-10.539 70.025-3.05 6.856 2.125 16.409-4.075 23.999-8.499 7.316-4.263 14.691-9.521 23.17-2.042 1.47 1.295 3.404 1.21 4.97.002 4.186-3.234 6.2-2.308 7.02 2.965 1.073 6.896 4.511 11.673 10.898 15.753 5.546 3.54 11.762 8.608 11.448 17.072-.089 2.414 1.665 4.033 3.173 5.726 7.638 8.595 8.084 15.343-1.279 20.029-10.872 5.442-13.415 18.843-25.366 22.959-4.679 1.611-3.227 8.905-4.622 13.443-4.654 15.141-6.609 16.733-20.825 11.567-7.33-2.663-18.582-19.817-19.639-27.644-.777-5.762 5.013-7.018 5.859-11.344-3.223-1.754-10.735 2.156-6.821-7.9 3.785-9.726-8.594-24.443-19.617-26.629-11.158-2.215-5.152-9.421-4.352-15.104l.35.352c-13.345 3.584-24.755 9.882-31.244 22.79-.86 1.711-1.82 3.874-3.489 3.418-7.622-2.083-15.902 1.737-25.39-3.185 8.008-2.04 6.039-9.066 9.882-12.701-1.998-.607-2.986-2.032-3.282-4.019-.416-2.13 2.635-4.488 1.73-5.037-1.646-.996-3.771 1.317-5.934 1.402-2.589-.303-4.603-1.25-4.743-4.27zM843.836 378.13c7.278 14.494 15.949 25.788 24.668 37.062 4.57 5.911 4.626 12.627 1.808 19.157-2.485 5.758-5.384 11.416-8.768 16.689-4.747 7.392-21.489 7.892-25.592-.343-3.996-8.017-11.921-9.472-17.468-14.563-5.887-5.407-13.976-1.525-20.475 1.356-24.697 10.967-24.628 11.128-32.033-13.795-3.139-10.565-1.48-14.608 8.936-19.099 5.438-2.343 10.331-4.486 13.695-10.031 5.805-9.559 18.056-8.801 26.396-14.82 2.718-1.963 10.309-2.562 10.772 4.886.432 6.973 6.099 8.139 10.231 8.4 5.877.374 3.548-5.932 4.822-9.35.445-1.188 1.209-2.261 3.008-5.549zM860.026 375.321c-6.669-2.374-12.977-3.675-19.406-4.297-10.113-.976-17.065-12.811-26.505-19.211 6.51.716 11.946 1.499 17.807 1.783 12.351.592 23.476 7.049 28.104 21.725zM568.247 364.054c1.07 10.208-3.741 18.561-5.924 27.402-.747 3.022-2.629 6.139-6.454 5.477-4.433-.771-5.304-4.767-4.904-8.296 1.201-10.574 3.781-20.535 17.282-24.583zM765.046 369.819c-25.494.675-32.867-19.397-44.31-34.31 11.353 3.285 21.68 11.315 24.996 20.622 2.974 8.338 6.619 8.836 12.568 9.644 2.285.311 4.336.684 6.746 4.044z"/><path fill-rule="evenodd" clip-rule="evenodd" d="M221.672 64.734c.462.527.991.978 1.587 1.351 5.577.268 7.822 4.777 10.734 8.436.09.898.06 1.611-.091 2.138-7.11 2.143-14.167 10.104-21.423.877-1.7-2.162-7.043-2.287-4.956-6.618 1.66-3.447 3.431-7.672 8.784-6.812 1.777.287 3.577.422 5.365.628zM778.474 243.394c1.261-7.646 4.639-10.17 8.857-11.482 10.562-3.285 18.961-8.043 18.468-21.128-.116-3.089 2.379-5.953 5.002-7.627 2.173-1.385 4.213.76 5.686 2.236 1.966 1.971-.175 3.833-1.494 4.045-5.691.919-5.585 3.468-5.362 8.878.334 8.149-3.285 15.48-13.178 17.208-5.75 1.003-11.319 2.971-17.979 7.87zM753.644 345.977c7.085-1.783 13.518-.364 17.979-6.562 3.24-4.498 5.432.096 5.924 2.876 1.103 6.278-2.167 12.58-6.771 14.738-4.329 2.028-11.484 1.443-14.608-5.186-.749-1.579-1.388-3.211-2.524-5.866zM616.316 71.694c-13.405 7.392-33.053 7.623-33.059 29.623-10.448-4.332-9.574-3.831-4.636-12.41 8.644-15.014 23.132-15.56 37.695-17.213zM438.075 183.229c-7.216-.535-17.638 2.212-11.083-11.761.998-2.122-2.93-3.823-4.921-5.399l.385.435c-.009-3.052-1.547-6.115-.025-9.148.875-1.744 2.077-2.666 4.169-1.616 3.126 1.568 12.689 22.943 11.875 26.859-.078.376-.562.667-.856.999l.456-.369zM483.304 51.265c.232 4.027 7.566 4.56 5.036 9.736-1.771 3.619-3.877 7.815-7.73 9.023-3.508 1.102-4.825-3.107-6.608-5.593-2.219-3.094-7.461-3.987-6.604-10.179 5.399.178 11.286 1.041 16.011-2.94l-.105-.047zM375.326 123.238c6.519 1.067 12.498.323 18.493-.48 2.942-.395 5.442 1.595 5.918 4.319.394 2.241-1.976 3.658-3.972 4.816-9.002 5.222-15.289 2.851-20.439-8.655zM217.18 89.686c8.372 12.46 21.378 1.346 32.164 9.326-11.048 4.53-20.631 3.267-29.882 1.688-4.392-.75-3.351-5.324-2.282-11.014zM152.375 97.136c.852-2.114 2.709-5.267 4.327-4.202 7.365 4.854 16.724-3.789 23.961 3.566-13.358 6.367-14.297 6.377-28.288.636zM927.118 462.038c-2.088 6.544-7.844 10.549-11.255 16.211-1.558 2.586-4.549 2.864-6.962.964-3.481-2.744-.498-5.15 1.454-6.053 6.197-2.876 8.624-11.721 17.135-10.736l-.372-.386zM727.177 324.941c6.06-4.838 10.825-8.737 15.703-12.494 1.822-1.402 3.548-.223 4.448 1.264.506.834.002 3.394-.297 3.437-6.91.992-9.156 11.913-19.854 7.793z"/><path fill-rule="evenodd" clip-rule="evenodd" d="M483.407 51.313c7.272-1.394 14.521-2.077 24.551.969-6.475 4.703-10.419 7.435-16.399 3.137-2.469-1.775-5.486-2.793-8.255-4.154l.103.048zM191.318 112.415c3.399-3.423 6.192-9.59 11.398-3.38 1.791 2.133 3.1 4.93.411 7.084-5.21 4.173-7.612-2.205-11.809-3.704zM422.071 166.069c-1.04 6.02-.886 12.935-10.258 13.109-2.727-9.585 1.871-12.817 10.644-12.674l-.386-.435zM231.785 146.6l.106-.379c5.235-2.676 8.169.996 11.042 4.936-4.176-.119-11.091 8.176-11.148-4.557zM189.535 95.594c5.143-4.766 8.56-5.712 11.956-2.17.549.572.266 2.731-.391 3.54-4.293 5.28-6.433-1.158-11.565-1.37zM783.593 350.686c2.495.243 4.636.543 4.985 3.485.382 3.186-.543 4.828-4.117 5.111-3.195.252-3.905-1.438-3.856-3.778.043-2.104.121-4.573 2.988-4.818zM197.07 82.417c-1.301.813-1.886 1.321-2.001 1.231-3.019-2.368-8.354.639-10.128-4.257-.338-.933.541-2.308.857-3.479 3.972 1.34 8.665 1.388 11.272 6.505zM152.662 87.996c-6.027 4.337-6.027 4.337-13.954 4.334 6.076-5.344 6.079-5.346 13.954-4.334zM756.277 280.299c4.361 4.166-1.897 8.656.26 12.432-4.473-3.578-5.702-7.432-.26-12.432zM856.829 467.174c-.443 1.979-1.789 3.447-3.67 3.193-2.488-.334-3.573-2.48-3.778-4.87-.238-2.803 2.035-2.559 3.656-2.516 2.527.066 4.216 1.274 3.792 4.193zM768.846 309.09c-.988 1.815-1.878 4.221-4.651 2.914-1.349-.633-3.487-1.904-2.218-3.854.845-1.295 2.736-2.393 4.297-2.62 2.196-.321 2.712 1.547 2.572 3.56zM276.652 298.122c-3.697 1.892-7.181 3.134-8.454.865-2.428-4.326 1.645-3.6 3.968-3.388 1.137.106 2.185 1.179 4.486 2.523zM240.574 287.347c5.553-1.882 8.381.395 12.037 2.832-4.713 1.269-7.662-1.833-12.037-2.832z"/><path fill-rule="evenodd" clip-rule="evenodd" fill="#FFF" d="M425.003 230.42c5.41-2.959 9.465-5.855 12.275-11.859 3.652-7.799 12.15-10.889 20.406-13.148 2.489-.681 4.282-.387 5.887 1.669 1.104 1.412 2.211 3.137 3.726 3.854 4.98 2.353 10.414 11.151 13.765 7.328 4.374-4.992-6.443-6.062-8.209-10.786-.454-1.216-.947-2.419-1.943-4.954 13.703 3.166 17.208 14.969 23.097 23.531 6.094-.386 2.654-5.176 4.487-7.283 1.84-2.108 5.453-4.641 6.195-1.375 3.398 14.889 15.996 10.634 25.901 13.265-.789 8.57-2.89 14.013-13.836 13.167-5.824-.45-11.448-1.158-17.087-2.395-2.164-.474-5.704-2.12-6.25-1.407-8.557 11.096-15.912.278-23.678-1.089-2.197-.387-5.194-1.643-4.837-3.9 1.838-11.615-6.356-7.662-11.982-8.33-9.637-1.144-17.882 5.85-27.917 3.712zM465.24 163.584c4.145 4.676 9.066 2.663 11.742-.578 3.68-4.461 9.177-10.29 7.103-15.763-2.425-6.39-.888-9.941 3.961-12.026 4.858-2.088 3.653-12.574 12.356-8.91.872 4.318-2.562 5.722-4.717 7.569-3.836 3.288-4.529 8.655-1.875 10.796 12.049 9.721-.763 15.112-3.579 21.667-2.063 4.809-21.846 5.712-26.254 1.849-1.295-1.137-.163-3.349 1.587-4.422l-.324-.182zM545.271 211.739c-3.189 3.137-6.451 3.288-9.396 2.167-5.608-2.13-10.929-3.744-16.912-.994-2.294 1.052-5.938 1.176-7.301-1.579-2.12-4.276.885-7.683 3.423-10.817 1.683-2.077 4.104-4.827 6.539-1.852 4.514 5.513 6.734 3.34 9.383-1.529.657-1.208 4.409-1.126 4.301.62-.462 7.488 8.694 7.441 9.963 13.984zM575.678 196.129c-4.23 5.362-6.032 10.322-.574 14.839 1.791 1.483 2.21 3.462 2.009 5.939-.311 3.791 4.903 9.533-3.196 10.314-6.196.599-9.483-2.456-6.718-9.196 1.033-2.517-.875-4.167-1.828-6.128-5.807-11.979-5.212-13.021 10.307-15.768zM549.214 294.922c-12.775-10.611-16.481-26.137-21.814-40.771 9.061 12.698 22.35 23.158 21.507 41.112l.307-.341zM585.733 258.002c-11.424 8.292-13.166 7.604-22.194-10.163 8.576 3.07 13.854 10.213 21.979 10.507l.215-.344zM541.267 122.715c1.292 8.944-6.465 5.887-10.399 7.302-1.571.567-2.973-2.715-2.864-5.076.154-3.359 2.284-2.681 4.542-2.374 3.015.408 6.085.395 9.129.562l-.408-.414zM184.465 130.142c-7.891 7.625-16.976 4.157-25.895 2.096 8.858 2.551 16.612-6.504 25.687-1.767l.208-.329zM205.056 126.062c2.502.432 5.681-.09 5.88 3.791.1 1.956-.9 3.938-2.762 4.038-4.399.238-1.101-2.856-1.581-4.369-.401-1.267-.795-2.538-1.19-3.805l-.347.345zM233.993 74.521c-4.522-1.611-7.899-4.679-10.734-8.436 7.804-4.928 14.984 3.285 22.682.858-.733 7.962-11.697-.908-11.948 7.578zM284.143 66.337l1.5-4.869c1.251-4.072 4.11-1.966 6.385-1.528 1.334.257 2.353 1.454 2.101 2.911-.481 2.782-2.869 3.047-5.059 3.229-1.745.146-3.517-.05-5.276-.095l.349.352z"/><path fill-rule="evenodd" clip-rule="evenodd" d="M462.296 216.431c-.117 1.609-.829 2.684-2.448 2.22-.559-.162-1.22-1.37-1.151-2.026.151-1.418 1.263-2.361 2.672-2.419.286-.013.634 1.489.927 2.225z"/></svg><svg fill="#FFF" height="48" viewBox="0 0 24 24" width="48" id="account" x="1810" y="317.667" xmlns="http://www.w3.org/2000/svg"><path d="M12 2C6.48 2 2 6.48 2 12s4.48 10 10 10 10-4.48 10-10S17.52 2 12 2zm0 3c1.66 0 3 1.34 3 3s-1.34 3-3 3-3-1.34-3-3 1.34-3 3-3zm0 14.2a7.2 7.2 0 0 1-6-3.22c.03-1.99 4-3.08 6-3.08 1.99 0 5.97 1.09 6 3.08a7.2 7.2 0 0 1-6 3.22z"/><path d="M0 0h24v24H0z" fill="none"/></svg><svg fill="#FFF" height="48" viewBox="0 0 24 24" width="48" id="flight" x="1810" y="365.667" xmlns="http://www.w3.org/2000/svg"><path d="M2.5 19h19v2h-19zm19.57-9.36c-.21-.8-1.04-1.28-1.84-1.06L14.92 10l-6.9-6.43-1.93.51 4.14 7.17-4.97 1.33-1.97-1.54-1.45.39 1.82 3.16.77 1.33 1.6-.43 5.31-1.42 4.35-1.16L21 11.49c.81-.23 1.28-1.05 1.07-1.85z"/><path d="M0 0h24v24H0V0z" fill="none"/></svg><svg viewBox="0 0 200 200" width="200" height="200" id="loading" x="960" y="673.6669999999999" xmlns="http://www.w3.org/2000/svg"><g fill="#61DAFB" pointer-events="visible" transform="translate(50 50)"><circle cx="50%" cy="33%" r="25"/><circle cx="33%" cy="66%" r="30"/><circle cx="66%" cy="66%" r="20"/></g></svg><svg fill="#FFF" height="48" viewBox="0 0 24 24" width="48" id="location" x="1810" y="413.667" xmlns="http://www.w3.org/2000/svg"><path d="M12 2C8.13 2 5 5.13 5 9c0 5.25 7 13 7 13s7-7.75 7-13c0-3.87-3.13-7-7-7zm0 9.5a2.5 2.5 0 0 1 0-5 2.5 2.5 0 0 1 0 5z"/><path d="M0 0h24v24H0z" fill="none"/></svg><svg width="919.332" height="317.667" viewBox="0 0 919.332 317.667" id="login" y="560" xmlns="http://www.w3.org/2000/svg"><defs><filter id="fa" x="0" y="0" width="200%" height="200%"><feOffset result="offOut" in="SourceGraphic" dx="20" dy="20"/><feColorMatrix result="matrixOut" in="offOut" values="0.2 0 0 0 0 0 0.2 0 0 0 0 0 0.2 0 0 0 0 0 1 0"/><feGaussianBlur result="blurOut" in="matrixOut" stdDeviation="10"/><feBlend in="SourceGraphic" in2="blurOut"/></filter></defs><g fill="#FFF"><path d="M212.833 203.666h-98.5l30.75-177h52.75l-22.25 128.75h45.75l-8.5 48.25zM352.084 120.166c0 11.668-1.461 22.836-4.375 33.5-2.918 10.668-7.336 20.086-13.25 28.25-5.918 8.168-13.211 14.668-21.875 19.5-8.668 4.832-18.75 7.25-30.25 7.25-8.5 0-15.961-1.375-22.375-4.125-6.418-2.75-11.836-6.582-16.25-11.5-4.418-4.914-7.75-10.75-10-17.5s-3.375-14.125-3.375-22.125c0-11.664 1.539-22.832 4.625-33.5 3.082-10.664 7.625-20.082 13.625-28.25 6-8.164 13.375-14.664 22.125-19.5 8.75-4.832 18.707-7.25 29.875-7.25 8.332 0 15.707 1.375 22.125 4.125 6.414 2.75 11.789 6.543 16.125 11.375 4.332 4.836 7.625 10.668 9.875 17.5 2.25 6.835 3.375 14.25 3.375 22.25zm-46.75 4.5c0-4.832-.75-8.75-2.25-11.75s-4-4.5-7.5-4.5c-3 0-5.625 1.418-7.875 4.25-2.25 2.836-4.086 6.336-5.5 10.5-1.418 4.168-2.5 8.586-3.25 13.25-.75 4.668-1.125 8.836-1.125 12.5 0 4.836.664 8.711 2 11.625 1.332 2.918 3.664 4.375 7 4.375 3 0 5.664-1.375 8-4.125 2.332-2.75 4.289-6.207 5.875-10.375 1.582-4.164 2.75-8.539 3.5-13.125.75-4.583 1.125-8.79 1.125-12.625zM396.082 203.666c-6 0-11.25-1.164-15.75-3.5-4.5-2.332-8.25-5.625-11.25-9.875s-5.211-9.25-6.625-15c-1.418-5.75-2.125-12.039-2.125-18.875 0-10 1.207-20.332 3.625-31 2.414-10.664 6-20.414 10.75-29.25 4.75-8.832 10.707-16.082 17.875-21.75 7.164-5.664 15.5-8.5 25-8.5 7.5 0 13.289 1.75 17.375 5.25 4.082 3.5 6.789 7.5 8.125 12h1l2.5-13.25h46.75l-20.75 119.25c-2 11.836-4.875 22.375-8.625 31.625s-8.625 17.039-14.625 23.375c-6 6.332-13.211 11.164-21.625 14.5-8.418 3.332-18.293 5-29.625 5-9 0-17.836-1.5-26.5-4.5-8.668-3-15.918-6.668-21.75-11l24.5-38c3.332 2.664 7.039 4.832 11.125 6.5 4.082 1.664 8.539 2.5 13.375 2.5 6.664 0 12.164-2.043 16.5-6.125 4.332-4.086 7.164-9.375 8.5-15.875l1.5-7.25h-.5c-2.5 3.336-6.125 6.461-10.875 9.375-4.75 2.917-10.711 4.375-17.875 4.375zm13-54.5c0 4.668.75 8.461 2.25 11.375 1.5 2.918 4.082 4.375 7.75 4.375 3 0 5.625-1.414 7.875-4.25 2.25-2.832 4.082-6.332 5.5-10.5 1.414-4.164 2.5-8.582 3.25-13.25.75-4.664 1.125-8.832 1.125-12.5 0-4.832-.75-8.707-2.25-11.625-1.5-2.914-3.918-4.375-7.25-4.375-3 0-5.668 1.418-8 4.25-2.336 2.836-4.25 6.336-5.75 10.5-1.5 4.168-2.625 8.625-3.375 13.375s-1.125 8.96-1.125 12.625zM598.829 203.666h-53l30.75-177h53l-30.75 177zM644.077 93.041c.5-3.082 1-6.082 1.5-9 .5-2.914.914-5.625 1.25-8.125.332-2.5.582-4.5.75-6h46c-.168 2.336-.418 5-.75 8-.336 3-.668 5.75-1 8.25h.75c3.332-5.832 7.832-10.832 13.5-15 5.664-4.164 12.5-6.25 20.5-6.25 5.664 0 10.457 1.043 14.375 3.125 3.914 2.086 7.125 4.75 9.625 8s4.332 6.875 5.5 10.875c1.164 4 1.75 7.836 1.75 11.5 0 3.836-.25 7.918-.75 12.25-.5 4.336-1.168 8.75-2 13.25l-14 79.75h-49.5l14.25-79.5c.164-1 .289-1.957.375-2.875.082-.914.125-1.789.125-2.625 0-2.332-.461-4.414-1.375-6.25-.918-1.832-2.793-2.75-5.625-2.75-3.168 0-5.586 1.293-7.25 3.875-1.668 2.586-2.918 6.043-3.75 10.375l-14 79.75h-49.75l18-102c.5-2.665 1-5.54 1.5-8.625z" filter="url(#fa)"/></g></svg><svg width="919.332" height="317.667" viewBox="0 0 919.332 317.667" id="logout" x="960" xmlns="http://www.w3.org/2000/svg"><defs><filter id="ga" x="0" y="0" width="200%" height="200%"><feOffset result="offOut" in="SourceGraphic" dx="20" dy="20"/><feColorMatrix result="matrixOut" in="offOut" values="0.2 0 0 0 0 0 0.2 0 0 0 0 0 0.2 0 0 0 0 0 1 0"/><feGaussianBlur result="blurOut" in="matrixOut" stdDeviation="10"/><feBlend in="SourceGraphic" in2="blurOut"/></filter></defs><g fill="#FFF"><path d="M118.833 203.666h-98.5l30.75-177h52.75l-22.25 128.75h45.75l-8.5 48.25zM258.084 120.166c0 11.668-1.461 22.836-4.375 33.5-2.918 10.668-7.336 20.086-13.25 28.25-5.918 8.168-13.211 14.668-21.875 19.5-8.668 4.832-18.75 7.25-30.25 7.25-8.5 0-15.961-1.375-22.375-4.125-6.418-2.75-11.836-6.582-16.25-11.5-4.418-4.914-7.75-10.75-10-17.5s-3.375-14.125-3.375-22.125c0-11.664 1.539-22.832 4.625-33.5 3.082-10.664 7.625-20.082 13.625-28.25 6-8.164 13.375-14.664 22.125-19.5 8.75-4.832 18.707-7.25 29.875-7.25 8.332 0 15.707 1.375 22.125 4.125 6.414 2.75 11.789 6.543 16.125 11.375 4.332 4.836 7.625 10.668 9.875 17.5 2.25 6.835 3.375 14.25 3.375 22.25zm-46.75 4.5c0-4.832-.75-8.75-2.25-11.75s-4-4.5-7.5-4.5c-3 0-5.625 1.418-7.875 4.25-2.25 2.836-4.086 6.336-5.5 10.5-1.418 4.168-2.5 8.586-3.25 13.25-.75 4.668-1.125 8.836-1.125 12.5 0 4.836.664 8.711 2 11.625 1.332 2.918 3.664 4.375 7 4.375 3 0 5.664-1.375 8-4.125 2.332-2.75 4.289-6.207 5.875-10.375 1.582-4.164 2.75-8.539 3.5-13.125.75-4.583 1.125-8.79 1.125-12.625zM302.082 203.666c-6 0-11.25-1.164-15.75-3.5-4.5-2.332-8.25-5.625-11.25-9.875s-5.211-9.25-6.625-15c-1.418-5.75-2.125-12.039-2.125-18.875 0-10 1.207-20.332 3.625-31 2.414-10.664 6-20.414 10.75-29.25 4.75-8.832 10.707-16.082 17.875-21.75 7.164-5.664 15.5-8.5 25-8.5 7.5 0 13.289 1.75 17.375 5.25 4.082 3.5 6.789 7.5 8.125 12h1l2.5-13.25h46.75l-20.75 119.25c-2 11.836-4.875 22.375-8.625 31.625s-8.625 17.039-14.625 23.375c-6 6.332-13.211 11.164-21.625 14.5-8.418 3.332-18.293 5-29.625 5-9 0-17.836-1.5-26.5-4.5-8.668-3-15.918-6.668-21.75-11l24.5-38c3.332 2.664 7.039 4.832 11.125 6.5 4.082 1.664 8.539 2.5 13.375 2.5 6.664 0 12.164-2.043 16.5-6.125 4.332-4.086 7.164-9.375 8.5-15.875l1.5-7.25h-.5c-2.5 3.336-6.125 6.461-10.875 9.375-4.75 2.917-10.711 4.375-17.875 4.375zm13-54.5c0 4.668.75 8.461 2.25 11.375 1.5 2.918 4.082 4.375 7.75 4.375 3 0 5.625-1.414 7.875-4.25 2.25-2.832 4.082-6.332 5.5-10.5 1.414-4.164 2.5-8.582 3.25-13.25.75-4.664 1.125-8.832 1.125-12.5 0-4.832-.75-8.707-2.25-11.625-1.5-2.914-3.918-4.375-7.25-4.375-3 0-5.668 1.418-8 4.25-2.336 2.836-4.25 6.336-5.75 10.5-1.5 4.168-2.625 8.625-3.375 13.375s-1.125 8.96-1.125 12.625zM608.829 91.416c0 14.836-2 29.25-6 43.25s-9.793 26.5-17.375 37.5c-7.586 11-16.875 19.836-27.875 26.5s-23.418 10-37.25 10c-10 0-18.875-1.668-26.625-5s-14.293-8.082-19.625-14.25c-5.336-6.164-9.375-13.539-12.125-22.125-2.75-8.582-4.125-18.125-4.125-28.625 0-14.832 2-29.25 6-43.25s9.75-26.457 17.25-37.375c7.5-10.914 16.707-19.707 27.625-26.375 10.914-6.664 23.289-10 37.125-10 10.5 0 19.664 1.668 27.5 5 7.832 3.336 14.375 8.043 19.625 14.125 5.25 6.086 9.207 13.418 11.875 22 2.664 8.585 4 18.125 4 28.625zm-53.5 7.5c0-7.5-1.25-13.75-3.75-18.75s-6.336-7.5-11.5-7.5c-4.668 0-8.793 1.961-12.375 5.875-3.586 3.918-6.586 8.793-9 14.625-2.418 5.836-4.25 12.168-5.5 19-1.25 6.836-1.875 13.25-1.875 19.25 0 7.336 1.125 13.461 3.375 18.375 2.25 4.918 6.289 7.375 12.125 7.375 4.5 0 8.539-1.914 12.125-5.75 3.582-3.832 6.582-8.664 9-14.5 2.414-5.832 4.25-12.164 5.5-19 1.25-6.833 1.875-13.165 1.875-19zM728.826 180.666c-.5 3-1 5.961-1.5 8.875-.5 2.918-.918 5.625-1.25 8.125-.336 2.5-.586 4.5-.75 6h-46c.164-2.332.414-5 .75-8 .332-3 .664-5.75 1-8.25h-.75c-3.336 5.836-7.836 10.836-13.5 15-5.668 4.164-12.5 6.25-20.5 6.25-5.668 0-10.461-1.043-14.375-3.125-3.918-2.082-7.125-4.75-9.625-8s-4.336-6.875-5.5-10.875c-1.168-4-1.75-7.832-1.75-11.5 0-3.832.25-7.914.75-12.25.5-4.332 1.164-8.75 2-13.25l14-79.75h49.5l-14.25 79.5c-.168 1-.293 1.961-.375 2.875a28.135 28.135 0 0 0-.125 2.625c0 2.336.457 4.418 1.375 6.25.914 1.836 2.789 2.75 5.625 2.75 3.164 0 5.582-1.289 7.25-3.875 1.664-2.582 2.914-6.039 3.75-10.375l14-79.75h49.75l-18 102c-.5 2.835-1 5.75-1.5 8.75zM798.573 206.166c-13 0-22.875-2.957-29.625-8.875-6.75-5.914-10.125-14.375-10.125-25.375 0-1.832.082-3.875.25-6.125.164-2.25.414-4.289.75-6.125l9-50.25h-17l7.25-39.5h17l5.25-30.5h48l-5.25 30.5h21.75l-7.25 39.5h-21.5l-6.5 36.75c-.336 1.168-.586 2.5-.75 4-.168 1.5-.25 2.668-.25 3.5 0 7.168 3.5 10.75 10.5 10.75 1.332 0 2.832-.082 4.5-.25 1.664-.164 3.082-.414 4.25-.75l-7.25 39.25c-2.336 1-5.793 1.832-10.375 2.5-4.586.664-8.793 1-12.625 1z" filter="url(#ga)"/></g></svg><svg fill="#FFF" height="48" viewBox="0 0 24 24" width="48" id="map" x="1810" y="461.667" xmlns="http://www.w3.org/2000/svg"><path d="M0 0h24v24H0z" fill="none"/><path d="M12 2C6.48 2 2 6.48 2 12s4.48 10 10 10 10-4.48 10-10S17.52 2 12 2zm-1 17.93c-3.95-.49-7-3.85-7-7.93 0-.62.08-1.21.21-1.79L9 15v1c0 1.1.9 2 2 2v1.93zm6.9-2.54c-.26-.81-1-1.39-1.9-1.39h-1v-3c0-.55-.45-1-1-1H8v-2h2c.55 0 1-.45 1-1V7h2c1.1 0 2-.9 2-2v-.41c2.93 1.19 5 4.06 5 7.41 0 2.08-.8 3.97-2.1 5.39z"/></svg><svg width="850" height="356" viewBox="0 0 850 356" id="roam" x="960" y="317.667" xmlns="http://www.w3.org/2000/svg"><g fill="#FFF"><path d="M187.68 144.629c0 14.89-2.95 27.455-8.845 37.7-5.899 10.25-14.26 17.69-25.085 22.33l19.43 87.58h-64.09l-11.02-74.82h-7.54l-13.05 74.82h-58l35.67-205.32h71.05c19.91 0 35.135 4.834 45.675 14.5 10.535 9.67 15.805 24.07 15.805 43.21zm-61.19 7.83c0-5.991-1.595-9.956-4.785-11.89-3.19-1.93-6.235-2.9-9.135-2.9h-8.12l-6.67 37.99h6.38c5.8 0 10.97-1.74 15.515-5.22 4.54-3.48 6.815-9.47 6.815-17.98zM368.637 162.029c0 17.209-2.32 33.93-6.96 50.17-4.64 16.24-11.36 30.74-20.155 43.5-8.799 12.76-19.575 23.01-32.335 30.74-12.76 7.73-27.165 11.6-43.21 11.6-8.12 0-15.515-.97-22.185-2.9-6.67-1.935-12.714-4.64-18.125-8.12l-16.82 23.201-23.2-14.21 21.17-27.84c-8.895-13.725-13.34-30.835-13.34-51.33 0-17.205 2.32-33.93 6.96-50.17 4.64-16.24 11.31-30.69 20.01-43.355 8.7-12.661 19.38-22.86 32.045-30.595 12.66-7.73 27.015-11.6 43.065-11.6 8.505 0 16.19.97 23.055 2.9 6.86 1.935 13.095 4.64 18.705 8.12l14.5-21.17 23.2 13.05-19.43 26.68c4.445 6.77 7.73 14.455 9.86 23.055 2.125 8.604 3.19 18.029 3.19 28.274zm-79.17-24.36c-5.8 0-10.925 2.333-15.37 6.992-4.45 4.658-8.22 10.485-11.31 17.472-3.095 6.987-5.465 14.654-7.105 23.001-1.645 8.346-2.465 16.113-2.465 23.295l46.11-67.266c-2.9-2.329-6.19-3.494-9.86-3.494zm-16.53 102.95c5.605 0 10.63-2.32 15.08-6.96 4.445-4.64 8.215-10.44 11.31-17.4 3.09-6.96 5.46-14.5 7.105-22.62 1.64-8.12 2.465-15.755 2.465-22.91l-46.4 66.7c2.705 2.13 6.185 3.19 10.44 3.19zM463.754 262.079h-36.83l-10.73 30.16h-63.22l86.421-205.32h75.109l10.73 205.32h-61.48v-30.16zm-22.33-46.11h23.199v-67.57h-1.16l-22.039 67.57zm70.471-177.19c0 5.03-.871 9.814-2.611 14.355-1.74 4.545-4.158 8.51-7.25 11.89a35.997 35.997 0 0 1-10.875 8.12c-4.158 2.03-8.654 3.045-13.484 3.045-8.699 0-15.275-2.511-19.721-7.54-4.449-5.025-6.67-11.405-6.67-19.14 0-5.22.82-10.15 2.465-14.79 1.641-4.64 3.961-8.745 6.961-12.325 2.994-3.575 6.475-6.38 10.439-8.41 3.961-2.03 8.266-3.045 12.906-3.045 9.279 0 16.238 2.709 20.879 8.12 4.64 5.415 6.961 11.99 6.961 19.72zm-14.5 1.16c0-4.06-1.115-7.685-3.336-10.875-2.225-3.19-5.754-4.785-10.584-4.785-5.801 0-10.295 2.465-13.486 7.395-3.189 4.93-4.785 10.395-4.785 16.385 0 4.06 1.111 7.54 3.336 10.44 2.221 2.9 5.654 4.35 10.295 4.35 2.705 0 5.221-.675 7.539-2.03a20.422 20.422 0 0 0 5.945-5.22c1.641-2.125 2.9-4.54 3.77-7.25a27.306 27.306 0 0 0 1.306-8.41zM741.283 292.239h-59.45l23.49-120.35h-.87l-47.851 120.35h-38.859l-4.061-120.35h-1.16l-18.27 120.35h-54.52l35.67-205.32h71.92l6.09 110.78h1.16l42.63-110.78h79.75l-35.669 205.32z"/></g></svg></svg>